<?xml version="1.0" standalone="no"?>
<!DOCTYPE svg PUBLIC "-//W3C//DTD SVG 20010904//EN"
 "http://www.w3.org/TR/2001/REC-SVG-20010904/DTD/svg10.dtd">
<svg version="1.0" xmlns="http://www.w3.org/2000/svg"
 width="738.000000pt" height="807.000000pt" viewBox="0 0 738.000000 807.000000"
 preserveAspectRatio="xMidYMid meet">

<g transform="translate(0.000000,807.000000) scale(0.100000,-0.100000)"
fill="#000000" stroke="none">
<path d="M3675 7821 c-16 -4 -70 -30 -120 -58 -49 -28 -268 -144 -485 -258
-344 -181 -597 -317 -735 -395 -201 -114 -525 -287 -676 -361 -110 -54 -189
-109 -189 -131 0 -5 20 -37 44 -71 24 -34 62 -89 85 -122 l41 -60 -425 -3
-425 -2 0 -2236 c0 -2072 1 -2238 17 -2264 10 -18 60 -53 137 -97 67 -38 252
-146 411 -239 160 -94 367 -215 460 -269 94 -54 238 -137 320 -185 83 -48 330
-190 550 -315 524 -299 804 -461 890 -517 39 -25 90 -51 114 -58 51 -13 52
-13 251 110 74 45 218 130 320 188 102 57 327 188 500 289 514 302 539 317
675 395 72 42 213 122 315 178 571 315 741 506 852 955 l22 90 3 1921 3 1921
-20 26 c-12 15 -65 51 -118 81 -215 120 -652 357 -1302 708 -377 204 -818 443
-980 533 -496 273 -472 261 -535 246z m567 -1525 c126 -33 245 -87 443 -201
88 -50 223 -124 300 -165 77 -40 196 -105 265 -145 69 -39 195 -108 281 -153
86 -45 168 -93 183 -107 l26 -24 3 -1238 c3 -1578 3 -1542 -18 -1628 -50 -203
-167 -375 -324 -479 -150 -98 -417 -253 -726 -421 -99 -54 -218 -121 -265
-148 -92 -53 -396 -226 -552 -314 -88 -49 -102 -54 -138 -48 -22 4 -77 30
-123 59 -45 29 -128 76 -182 105 -55 30 -145 79 -200 111 -313 179 -840 474
-1293 725 -67 37 -129 77 -137 89 -13 18 -15 221 -15 1523 0 1352 2 1503 16
1517 14 14 90 16 667 19 1001 3 1047 1 1247 -64 118 -39 157 -59 240 -119 204
-151 299 -352 329 -695 14 -153 14 -635 1 -784 -17 -193 -69 -310 -187 -423
-94 -89 -187 -133 -343 -165 -99 -20 -756 -31 -789 -14 l-21 12 0 622 0 622
52 0 c29 0 250 1 492 3 l438 2 -4 88 c-3 67 -11 103 -34 157 -102 240 -314
406 -604 475 -80 19 -119 20 -652 20 l-568 0 -2 -1297 c-2 -714 0 -1313 4
-1332 3 -19 12 -40 20 -47 10 -10 185 -13 898 -14 865 -2 888 -1 1000 20 286
53 557 189 740 372 195 195 301 421 346 743 16 119 39 978 30 1165 -24 521
-216 973 -522 1234 -213 182 -424 291 -679 352 l-100 24 180 -4 c154 -3 194
-8 277 -30z"/>
<path d="M5082 3099 c-45 -9 -57 -22 -81 -89 -30 -81 -131 -232 -205 -305 -69
-69 -157 -134 -245 -184 -34 -19 -61 -40 -61 -46 0 -6 10 -21 23 -33 l23 -22
537 0 536 0 3 303 c2 166 0 316 -5 334 -4 17 -15 34 -25 38 -21 10 -457 13
-500 4z"/>
</g>
</svg>
