<?xml version="1.0" standalone="no"?>
<!DOCTYPE svg PUBLIC "-//W3C//DTD SVG 20010904//EN"
 "http://www.w3.org/TR/2001/REC-SVG-20010904/DTD/svg10.dtd">
<svg version="1.0" xmlns="http://www.w3.org/2000/svg"
 width="1280.000000pt" height="853.000000pt" viewBox="0 0 1280.000000 853.000000"
 preserveAspectRatio="xMidYMid meet">

<g transform="translate(0.000000,853.000000) scale(0.100000,-0.100000)"
fill="#000000" stroke="none">
<path d="M5705 7230 c-3 -5 -1 -10 4 -10 6 0 11 5 11 10 0 6 -2 10 -4 10 -3 0
-8 -4 -11 -10z"/>
<path d="M5653 7204 c-7 -3 -13 -15 -13 -26 0 -15 4 -18 17 -14 16 6 16 6 0
-12 -22 -24 -21 -35 1 -55 12 -11 37 -17 73 -18 81 -1 148 -13 125 -22 -11 -4
-16 -13 -12 -22 3 -8 2 -14 -3 -12 -4 1 -31 -27 -59 -63 -29 -36 -62 -71 -75
-78 -25 -15 -47 -17 263 18 303 34 556 43 995 37 226 -3 491 -11 590 -17 218
-13 645 -55 706 -69 50 -12 201 -25 272 -25 26 1 46 -3 45 -8 -2 -5 -44 -26
-93 -48 -50 -21 -112 -51 -140 -66 -51 -29 -160 -108 -170 -124 -3 -4 -13 -6
-23 -4 -18 4 -362 27 -657 44 -160 9 -313 15 -1075 41 -173 6 -553 12 -845 14
l-530 3 -90 -45 c-143 -71 -348 -197 -660 -406 -176 -118 -466 -337 -650 -491
-49 -42 -98 -76 -107 -76 -10 0 -23 10 -29 23 -6 12 -13 24 -15 26 -2 2 -39
-23 -81 -56 -43 -33 -132 -98 -198 -145 -66 -47 -133 -99 -149 -116 -28 -30
-28 -31 -10 -50 37 -39 67 -45 564 -112 41 -6 242 -24 445 -40 204 -16 395
-32 425 -35 131 -12 686 -45 920 -55 516 -20 1296 -31 1408 -20 253 27 496
160 626 344 24 33 103 158 176 276 403 655 529 826 707 963 87 66 213 124 308
142 44 8 99 20 123 25 23 6 57 10 76 10 28 0 96 25 96 35 0 5 -120 119 -134
127 -6 3 -119 8 -251 11 -132 2 -223 2 -203 -2 30 -5 36 -9 28 -21 -14 -22
-12 -30 8 -30 25 -1 153 -47 166 -61 12 -12 -58 -9 -234 10 -520 58 -982 79
-1505 69 -203 -4 -417 -12 -475 -16 -89 -8 -107 -7 -117 6 -22 26 -15 32 36
32 83 0 111 9 111 36 0 19 -5 24 -25 24 -14 0 -25 5 -25 11 0 6 7 9 15 5 8 -3
15 -2 15 3 0 12 -226 25 -242 14 -9 -5 0 -10 27 -15 34 -6 -46 -2 -195 8 -66
5 -66 5 -45 14 11 5 15 9 8 9 -6 1 -18 4 -27 7 -12 4 -16 0 -16 -15 0 -22 -15
-25 -60 -11 -25 7 -22 10 20 23 8 2 -2 8 -22 12 -42 8 -51 25 -14 25 14 0 36
4 50 10 14 5 26 6 26 1 0 -13 37 -6 54 11 22 22 14 25 -79 27 -44 0 -98 3
-120 5 -22 3 -46 3 -52 0z m21 -90 c3 -8 2 -12 -4 -9 -6 3 -10 10 -10 16 0 14
7 11 14 -7z m584 -41 c-10 -2 -26 -2 -35 0 -10 3 -2 5 17 5 19 0 27 -2 18 -5z
m2452 -213 c-8 -5 -19 -10 -25 -10 -5 0 -3 5 5 10 8 5 20 10 25 10 6 0 3 -5
-5 -10z"/>
<path d="M6963 7193 c20 -2 54 -2 75 0 20 2 3 4 -38 4 -41 0 -58 -2 -37 -4z"/>
<path d="M7133 7193 c15 -2 37 -2 50 0 12 2 0 4 -28 4 -27 0 -38 -2 -22 -4z"/>
<path d="M7425 7190 l-20 -9 20 1 c11 0 34 4 50 8 l30 8 -30 0 c-16 0 -39 -3
-50 -8z"/>
<path d="M5944 7182 c4 -6 13 -9 21 -6 8 3 20 2 27 -2 7 -4 51 -9 98 -9 489
-8 556 -8 547 1 -4 4 -73 8 -154 9 -82 2 -237 6 -347 10 -142 5 -197 4 -192
-3z"/>
<path d="M7563 7183 c26 -2 68 -2 95 0 26 2 4 3 -48 3 -52 0 -74 -1 -47 -3z"/>
<path d="M6838 7163 c17 -2 47 -2 65 0 17 2 3 4 -33 4 -36 0 -50 -2 -32 -4z"/>
<path d="M7320 7153 c34 -2 59 -10 67 -19 7 -10 13 -12 18 -5 9 15 52 14 58
-1 3 -10 8 -9 22 2 14 11 19 12 22 3 5 -14 39 -21 133 -26 51 -4 67 -1 77 12
12 15 14 15 24 -2 5 -9 15 -14 21 -11 6 4 73 6 148 5 88 -1 141 2 145 8 3 6
24 11 46 11 21 0 39 5 39 10 0 6 -37 10 -87 11 -49 1 -170 2 -270 4 -101 1
-183 -2 -183 -6 0 -5 5 -9 12 -9 6 0 9 -3 6 -6 -4 -3 -20 2 -37 10 -24 13 -60
16 -173 14 -79 -1 -118 -3 -88 -5z m630 -29 c0 -2 -7 -4 -15 -4 -8 0 -15 4
-15 10 0 5 7 7 15 4 8 -4 15 -8 15 -10z"/>
<path d="M6195 7140 c-13 -6 5 -9 54 -9 41 -1 72 1 70 3 -10 8 -106 13 -124 6z"/>
<path d="M6989 7141 c12 -8 51 -4 51 5 0 2 -15 4 -32 4 -23 0 -29 -3 -19 -9z"/>
<path d="M8223 7127 c0 -17 6 -23 23 -25 15 -1 24 4 24 13 0 10 10 15 30 15
17 0 30 5 30 10 0 6 -24 10 -54 10 -49 0 -53 -2 -53 -23z"/>
<path d="M8348 7143 c6 -2 18 -2 25 0 6 3 1 5 -13 5 -14 0 -19 -2 -12 -5z"/>
<path d="M8469 7140 c19 -4 40 -6 47 -3 7 2 21 0 32 -6 29 -15 202 -21 224 -7
10 6 18 13 18 16 0 4 -80 7 -177 7 -115 1 -166 -1 -144 -7z"/>
<path d="M8879 7137 c5 -5 19 -7 32 -5 20 3 19 5 -9 9 -20 3 -29 2 -23 -4z"/>
<path d="M8805 7130 c-3 -6 1 -7 9 -4 18 7 21 14 7 14 -6 0 -13 -4 -16 -10z"/>
<path d="M8998 7134 c-2 -5 -1 -25 2 -44 l6 -35 7 28 c7 26 -5 69 -15 51z"/>
<path d="M7098 7123 c7 -3 16 -2 19 1 4 3 -2 6 -13 5 -11 0 -14 -3 -6 -6z"/>
<path d="M6400 7067 c0 -13 38 -16 263 -21 664 -15 1301 -26 1397 -25 l105 2
-100 7 c-55 4 -181 8 -280 9 -314 3 -1319 31 -1352 37 -25 5 -33 3 -33 -9z"/>
<path d="M7858 7060 c13 -5 43 -10 65 -9 23 0 130 -3 237 -7 107 -3 193 -4
189 -1 -3 4 -63 8 -135 11 -71 3 -185 7 -254 11 -90 4 -118 3 -102 -5z"/>
<path d="M8380 7046 c0 -2 7 -7 16 -10 8 -3 12 -2 9 4 -6 10 -25 14 -25 6z"/>
<path d="M7928 6963 c7 -3 16 -2 19 1 4 3 -2 6 -13 5 -11 0 -14 -3 -6 -6z"/>
<path d="M5658 6863 c7 -3 16 -2 19 1 4 3 -2 6 -13 5 -11 0 -14 -3 -6 -6z"/>
<path d="M6781 6848 c-42 -28 -49 -44 -22 -53 28 -8 106 4 128 20 16 12 16 15
3 29 -28 28 -72 30 -109 4z"/>
<path d="M5521 6839 c-82 -18 -129 -37 -61 -24 72 14 184 43 165 43 -11 0 -58
-8 -104 -19z"/>
<path d="M5375 6800 c-13 -5 -14 -9 -5 -9 8 0 24 4 35 9 13 5 14 9 5 9 -8 0
-24 -4 -35 -9z"/>
<path d="M8995 6749 c-8 -11 35 -12 53 0 9 5 3 8 -17 9 -17 0 -33 -4 -36 -9z"/>
<path d="M8865 6720 c-13 -5 -14 -9 -5 -9 8 0 24 4 35 9 13 5 14 9 5 9 -8 0
-24 -4 -35 -9z"/>
<path d="M8722 6675 c-305 -110 -506 -335 -798 -891 -35 -67 -64 -126 -64
-130 0 -5 21 29 46 76 332 618 519 826 849 946 49 18 83 33 75 33 -8 0 -57
-15 -108 -34z"/>
<path d="M9515 6652 c-27 -7 -30 -12 -29 -43 0 -19 26 -102 56 -184 101 -272
200 -649 234 -887 6 -44 4 -48 -14 -48 -11 0 -33 -5 -49 -12 -15 -6 -32 -12
-38 -13 -34 -5 -65 -19 -65 -30 0 -6 -17 -17 -37 -22 -21 -6 -60 -17 -86 -24
-37 -11 -44 -15 -30 -21 12 -6 10 -7 -8 -3 -15 3 -51 0 -80 -5 -79 -15 -70 -5
13 15 40 9 87 21 103 26 17 5 50 14 74 20 52 13 51 21 -2 9 -20 -4 -39 -4 -42
0 -3 4 -16 92 -30 196 -39 287 -85 483 -176 760 -63 190 -73 207 -133 224 -42
12 -59 10 -174 -15 -351 -76 -529 -214 -772 -600 -34 -55 -83 -131 -107 -168
-24 -38 -48 -79 -53 -91 -5 -13 -37 -66 -72 -119 -100 -151 -210 -325 -247
-391 -18 -34 -60 -107 -93 -163 -33 -56 -66 -123 -74 -148 -13 -45 -13 -47 11
-71 31 -31 55 -30 200 7 140 37 212 50 276 52 52 2 131 36 125 54 -5 12 74 27
199 38 39 3 104 10 145 15 496 62 506 64 550 123 17 23 30 47 30 54 0 28 46
61 100 73 30 7 141 37 245 68 105 30 206 58 226 62 19 3 41 10 48 14 7 5 132
50 279 101 318 112 384 136 378 143 -3 2 -35 -7 -73 -20 -117 -42 -134 -47
-150 -41 -12 5 -14 3 -8 -7 5 -8 4 -11 -2 -7 -5 3 -27 1 -49 -5 -21 -6 -50
-11 -64 -10 -23 2 -23 1 -5 -7 17 -8 16 -9 -10 -9 -33 1 -104 -11 -120 -19 -7
-4 -7 -3 0 4 6 6 51 22 100 38 50 15 124 40 165 55 41 16 116 42 165 58 50 16
122 42 160 57 39 15 90 34 115 41 25 7 77 25 115 39 39 14 76 25 83 25 21 0
13 -18 -10 -25 -13 -4 -42 -16 -66 -27 -24 -11 -58 -22 -75 -23 -18 -2 -31 -8
-30 -13 2 -10 -52 -28 -69 -24 -5 1 -8 -3 -8 -9 0 -7 -10 -9 -25 -5 -18 5 -25
2 -25 -8 0 -8 -16 -20 -36 -26 -19 -7 -33 -14 -31 -16 4 -5 215 75 332 125 52
23 69 35 68 48 -1 10 0 12 3 6 6 -15 24 -17 24 -4 0 5 -14 14 -30 21 -20 8
-32 22 -36 39 -30 149 -29 147 -163 285 -69 70 -140 138 -157 150 -17 11 -65
50 -107 86 -139 121 -285 192 -443 214 -116 17 -376 28 -419 18z m237 -32
c274 -23 418 -80 612 -245 50 -42 74 -85 100 -175 8 -30 31 -109 50 -175 20
-66 34 -126 31 -132 -2 -7 0 -13 6 -13 6 0 9 -10 8 -22 -2 -13 1 -29 5 -37 12
-18 -23 -44 -99 -73 -80 -30 -84 -31 -56 -15 15 9 20 17 12 21 -6 4 -15 5 -20
2 -5 -3 -17 6 -26 21 -12 18 -14 28 -7 31 7 2 12 10 12 18 0 9 11 14 30 14 31
0 50 22 50 59 0 23 -12 26 -41 11 -16 -9 -19 -7 -19 14 0 14 5 28 10 31 18 11
2 23 -24 18 -13 -3 -34 2 -47 11 -17 10 -68 18 -162 25 -77 5 -142 12 -145 16
-3 3 77 3 179 0 170 -6 182 -5 157 10 -33 19 -205 41 -438 55 -96 6 -197 17
-224 24 l-48 13 -48 139 c-26 76 -61 175 -78 219 -39 104 -45 123 -37 135 8
13 105 13 257 0z m-562 -57 c14 -19 19 -35 15 -53 -3 -14 -2 -20 3 -13 5 8 17
-14 34 -60 40 -109 91 -278 85 -283 -3 -3 -8 8 -12 25 -4 17 -10 31 -15 31 -4
0 -6 10 -3 23 4 18 3 20 -7 7 -10 -13 -11 -12 -6 4 7 21 -11 86 -24 86 -5 0
-11 -6 -14 -12 -5 -10 -7 -10 -12 0 -3 6 -10 9 -15 6 -6 -3 -7 6 -3 23 9 38
12 40 23 12 l10 -24 0 28 c1 15 -3 27 -8 27 -5 0 -7 10 -5 23 3 16 1 14 -10
-8 -12 -26 -14 -27 -19 -10 -3 11 -3 4 -1 -15 l5 -36 -42 4 c-24 3 -52 13 -63
24 -27 26 -96 59 -96 47 0 -6 8 -29 19 -52 10 -23 22 -57 26 -74 6 -28 4 -33
-12 -33 -26 1 -64 36 -57 53 3 8 0 18 -7 23 -7 4 -14 3 -17 -4 -3 -9 -12 -8
-35 2 -18 7 -54 16 -80 20 -26 4 -47 13 -47 19 0 8 -16 11 -51 8 -29 -2 -56 2
-62 8 -8 8 -5 11 10 11 16 0 20 5 16 20 -4 16 -2 19 11 14 12 -4 16 0 16 15 0
12 5 21 11 21 5 0 7 -4 4 -10 -7 -12 2 -12 30 0 11 5 14 9 7 9 -7 1 -11 5 -7
11 3 5 11 7 18 5 7 -3 26 4 42 16 17 12 21 18 10 14 -11 -4 -38 -12 -60 -17
-22 -5 -50 -16 -62 -23 -16 -11 -24 -12 -29 -3 -4 7 -3 8 4 4 7 -4 12 -3 12 2
0 5 19 15 43 22 23 8 47 17 53 22 21 16 116 39 132 33 9 -3 13 -2 8 2 -12 12
79 31 151 32 56 1 64 -2 83 -26z m-546 -185 c-3 -4 -11 -5 -19 -1 -21 7 -19
12 4 10 11 0 18 -5 15 -9z m1846 -69 c0 -6 -4 -7 -10 -4 -5 3 -10 11 -10 16 0
6 5 7 10 4 6 -3 10 -11 10 -16z m124 -157 c68 -70 94 -104 66 -87 -8 5 -11 4
-6 -3 4 -6 13 -9 21 -5 19 7 60 -83 69 -149 5 -46 5 -47 -27 -53 -18 -4 -45
-14 -60 -22 -16 -8 -31 -12 -34 -10 -2 3 -13 41 -24 84 -24 94 -56 197 -74
238 -8 17 -23 52 -35 80 l-21 50 27 -25 c15 -14 59 -58 98 -98z m-1799 -587
c159 -24 196 -38 258 -98 44 -42 58 -63 71 -109 26 -90 24 -95 -36 -107 -126
-23 -478 -55 -757 -67 l-154 -7 5 65 c3 35 15 86 26 112 30 66 135 169 214
207 61 30 66 30 168 25 58 -4 150 -13 205 -21z m1100 -58 c16 -13 15 -14 -13
-9 -18 2 -32 8 -32 13 0 13 24 11 45 -4z m-95 -17 c0 -5 -2 -10 -4 -10 -3 0
-8 5 -11 10 -3 6 -1 10 4 10 6 0 11 -4 11 -10z m-30 -21 c0 -6 -7 -9 -15 -5
-8 3 -26 1 -40 -4 -15 -6 -25 -6 -25 0 0 9 23 17 58 19 12 0 22 -4 22 -10z
m-103 -25 c-3 -3 -12 -4 -19 -1 -8 3 -5 6 6 6 11 1 17 -2 13 -5z m-437 -114
c-8 -5 -22 -9 -30 -9 -10 0 -8 3 5 9 27 12 43 12 25 0z m-1285 -180 c3 -5 1
-10 -4 -10 -6 0 -11 5 -11 10 0 6 2 10 4 10 3 0 8 -4 11 -10z"/>
<path d="M9627 6276 c-4 -10 -3 -15 3 -11 6 4 11 -8 11 -27 2 -30 2 -30 6 -6
2 15 0 35 -5 44 -8 15 -10 15 -15 0z"/>
<path d="M9655 6190 c-6 -18 9 -60 21 -60 2 0 0 9 -6 20 -6 12 -8 30 -5 40 4
11 4 20 1 20 -2 0 -7 -9 -11 -20z"/>
<path d="M10497 5943 c-4 -3 -7 -11 -7 -17 0 -6 5 -5 12 2 6 6 9 14 7 17 -3 3
-9 2 -12 -2z"/>
<path d="M10488 5793 c7 -3 16 -2 19 1 4 3 -2 6 -13 5 -11 0 -14 -3 -6 -6z"/>
<path d="M10443 5763 c9 -2 23 -2 30 0 6 3 -1 5 -18 5 -16 0 -22 -2 -12 -5z"/>
<path d="M11380 5913 c0 -5 14 -24 31 -43 l30 -35 -21 43 c-18 37 -41 56 -40
35z"/>
<path d="M11325 5703 c-80 -18 -235 -59 -375 -96 -91 -25 -235 -63 -320 -86
-432 -112 -550 -143 -605 -161 -33 -10 -97 -28 -143 -39 -45 -12 -160 -45
-255 -75 -94 -29 -253 -77 -352 -106 -99 -28 -198 -58 -220 -65 -22 -8 -166
-51 -320 -95 -350 -101 -643 -190 -759 -230 -142 -49 -1042 -320 -1211 -366
-49 -13 -100 -24 -113 -24 l-24 0 23 38 c38 63 5 21 -58 -73 -62 -94 -85 -132
-60 -102 27 33 27 17 -1 -25 -40 -63 -64 -88 -84 -88 -10 0 -71 -14 -136 -31
-64 -17 -148 -39 -187 -49 -38 -10 -153 -41 -255 -70 -102 -29 -214 -60 -250
-70 -36 -10 -137 -38 -225 -63 -88 -25 -295 -81 -460 -124 l-300 -78 -375 1
c-460 1 -761 18 -1413 80 -266 25 -432 51 -762 120 -387 80 -578 133 -625 172
-10 10 -31 41 -46 71 l-27 54 -14 -44 c-15 -43 -14 -119 3 -179 4 -16 3 -22
-3 -15 -6 6 -20 48 -32 95 -21 81 -23 154 -7 205 3 11 -5 -3 -19 -31 -14 -29
-30 -76 -35 -106 -17 -89 -27 -307 -18 -367 10 -66 46 -145 69 -149 9 -2 31
20 55 55 43 63 175 203 191 203 6 0 44 -11 84 -24 157 -51 672 -167 804 -181
33 -4 71 -9 85 -11 22 -5 67 -10 149 -17 13 -1 26 3 28 9 4 13 -27 20 -130 30
-62 6 -67 9 -67 30 0 27 5 28 81 15 30 -5 85 -13 122 -16 64 -6 69 -9 79 -36
6 -19 17 -29 30 -29 10 0 17 4 13 9 -3 6 8 8 27 6 104 -14 892 -68 1173 -81
l140 -7 102 52 c62 30 116 51 135 51 l33 0 -40 -23 c-22 -13 -75 -46 -118 -75
-76 -50 -78 -51 -140 -47 -34 3 -183 12 -332 21 -148 8 -380 24 -515 34 -325
26 -407 31 -395 26 23 -11 701 -63 1198 -92 94 -5 122 -10 142 -26 14 -11 30
-16 36 -12 8 4 9 3 5 -4 -4 -7 10 -23 34 -39 23 -16 99 -76 170 -134 72 -58
149 -116 173 -129 l43 -23 220 27 c120 16 266 34 324 41 264 33 579 90 720
132 233 69 496 259 733 529 20 22 42 41 50 41 7 0 101 29 208 66 639 217 1307
429 1664 526 196 54 829 211 850 211 8 0 19 -10 24 -22 l8 -22 5 21 c5 17 16
23 54 28 57 7 90 18 159 50 28 13 68 28 90 34 130 33 168 41 245 56 47 9 130
28 185 41 86 21 439 100 486 109 9 2 25 8 35 14 25 14 180 53 224 56 19 2 55
8 80 13 278 67 476 115 480 119 2 2 -11 49 -30 104 -25 71 -39 99 -51 99 -9 0
-104 -22 -210 -49 -107 -27 -214 -53 -239 -56 -39 -6 -158 -33 -400 -91 -36
-9 -101 -27 -144 -40 -43 -14 -172 -47 -285 -74 -113 -28 -224 -55 -246 -60
-22 -6 -49 -12 -60 -14 -43 -8 -164 -36 -255 -60 -171 -44 -587 -159 -675
-186 -33 -10 -105 -30 -160 -45 -136 -37 -463 -132 -540 -157 -16 -5 -52 -15
-80 -23 -27 -7 -57 -16 -67 -20 -11 -4 -18 0 -21 12 -4 15 -5 14 -6 -4 0 -12
-9 -24 -18 -27 -10 -3 -112 -34 -228 -70 -186 -57 -319 -98 -680 -207 -55 -17
-131 -40 -168 -52 -68 -21 -69 -21 -83 -2 -13 18 -10 20 48 41 35 12 151 50
258 84 107 33 220 69 250 80 324 109 1133 353 1930 584 162 46 336 97 385 112
132 39 567 160 664 185 49 12 100 19 125 16 22 -3 64 2 91 9 28 8 113 28 190
45 280 62 594 138 604 145 7 6 -10 75 -17 70 -4 -2 -8 19 -10 48 -2 28 -8 78
-15 111 -12 59 -13 60 -47 62 -19 0 -44 -1 -55 -4z m18 -30 c-7 -2 -19 -2 -25
0 -7 3 -2 5 12 5 14 0 19 -2 13 -5z m-50 -10 c-7 -2 -19 -2 -25 0 -7 3 -2 5
12 5 14 0 19 -2 13 -5z m74 -199 c-3 -3 -12 -4 -19 -1 -8 3 -5 6 6 6 11 1 17
-2 13 -5z m-297 -78 c0 -2 -7 -6 -15 -10 -8 -3 -15 -1 -15 4 0 6 7 10 15 10 8
0 15 -2 15 -4z m-105 -326 c-3 -5 -12 -10 -18 -10 -7 0 -6 4 3 10 19 12 23 12
15 0z m-4127 -945 c23 -4 42 -10 42 -13 0 -4 -82 -34 -183 -66 -142 -47 -221
-80 -362 -153 -99 -51 -179 -97 -177 -103 1 -7 -2 -8 -8 -5 -13 8 -70 -14 -70
-27 0 -5 10 -4 23 2 22 11 22 11 2 -5 -11 -9 -42 -28 -70 -41 -27 -14 -42 -18
-32 -10 13 10 14 15 5 18 -14 5 100 72 272 161 63 33 117 62 120 64 3 3 -10 4
-27 1 -18 -2 -33 -3 -33 -1 0 2 26 16 58 30 31 14 89 41 128 59 39 19 76 34
81 34 6 0 18 10 27 23 9 12 14 17 11 10 -4 -9 2 -10 26 -1 21 7 27 13 19 18
-26 16 66 19 148 5z m-224 -14 c-33 -10 -70 -24 -82 -30 -11 -6 -29 -11 -40
-11 -11 0 -25 -7 -32 -15 -7 -9 -29 -15 -54 -15 -43 0 -120 -14 -271 -49 -126
-30 -151 -35 -145 -29 3 3 73 22 155 42 305 76 422 106 446 115 13 5 38 10 54
10 22 0 14 -5 -31 -18z m296 -80 c-14 -27 -129 -171 -136 -171 -3 0 8 17 25
38 18 20 50 63 73 95 43 58 57 72 38 38z m-500 -22 c-14 -11 -50 -32 -80 -46
-90 -41 -133 -60 -170 -76 -20 -8 -69 -33 -110 -57 l-75 -42 -65 11 c-223 37
-268 43 -304 38 -23 -3 -33 -3 -23 0 9 2 15 8 13 12 -3 4 9 8 26 9 17 1 38 7
48 12 24 13 40 13 20 0 -13 -8 -13 -10 1 -10 29 0 181 31 274 56 50 13 124 31
165 40 41 9 77 20 80 24 8 13 139 44 205 48 18 1 18 0 -5 -19z m307 -15 c-3
-3 -12 -4 -19 -1 -8 3 -5 6 6 6 11 1 17 -2 13 -5z m-5229 -16 c18 -18 14 -45
-7 -51 -14 -3 -19 0 -19 12 0 9 -3 24 -7 34 -8 20 14 24 33 5z m92 -38 c5 0
20 -24 33 -54 23 -49 30 -56 69 -66 24 -7 93 -25 153 -42 61 -16 130 -33 155
-38 152 -31 438 -91 471 -100 24 -7 39 -17 39 -26 0 -12 -9 -14 -47 -9 -138
20 -712 155 -819 194 -45 15 -50 21 -71 76 -27 70 -28 79 -7 71 9 -3 19 -6 24
-6z m4287 -6 c-3 -3 -12 -4 -19 -1 -8 3 -5 6 6 6 11 1 17 -2 13 -5z m-40 -10
c-3 -3 -12 -4 -19 -1 -8 3 -5 6 6 6 11 1 17 -2 13 -5z m678 -4 c-3 -5 -13 -10
-21 -10 -21 0 -228 -99 -325 -155 -91 -53 -118 -59 -41 -11 29 19 52 38 52 42
-3 11 69 46 80 39 6 -4 23 3 38 14 29 20 188 89 210 90 7 1 10 -3 7 -9z m18
-80 c30 -27 -18 -152 -61 -158 -12 -2 -22 -10 -22 -18 0 -25 -103 -115 -196
-171 -52 -31 -55 -32 -48 -11 4 13 11 26 16 29 6 4 6 15 -2 29 -9 18 -9 24 0
30 9 6 9 13 1 28 -15 28 -14 32 4 26 11 -4 15 0 15 16 0 19 -1 20 -16 6 -19
-20 -24 -20 -50 -1 -21 14 -55 15 -86 1 -25 -11 -22 -25 7 -32 26 -6 26 -6 5
-21 -18 -13 -20 -21 -14 -61 7 -46 20 -66 36 -56 4 3 3 -7 -2 -21 -13 -34 -13
-37 3 -30 6 3 1 -2 -12 -12 -31 -23 -142 -63 -209 -75 -78 -15 -102 12 -65 70
17 25 17 26 0 13 -15 -12 -16 -11 -6 18 12 35 30 52 22 21 -4 -15 -2 -19 10
-14 9 3 19 14 22 24 3 10 31 40 63 66 80 67 79 66 58 58 -13 -5 -17 -4 -13 3
13 21 203 132 303 178 54 25 117 54 139 65 38 17 79 17 98 0z m-876 -16 c-3
-3 -12 -4 -19 -1 -8 3 -5 6 6 6 11 1 17 -2 13 -5z m-127 -29 l35 -13 -30 1
c-16 0 -38 -3 -47 -7 -11 -5 -18 -4 -18 3 0 6 8 11 18 11 14 0 15 2 2 10 -21
13 -2 11 40 -5z m325 -5 c-3 -5 -12 -10 -18 -10 -7 0 -6 4 3 10 19 12 23 12
15 0z m-445 -31 c25 -5 87 -23 139 -40 51 -17 100 -28 108 -25 8 3 12 2 9 -3
-3 -5 5 -12 19 -15 l25 -6 -51 -70 c-28 -39 -54 -70 -58 -70 -4 0 -17 21 -29
46 -18 35 -27 44 -40 39 -9 -3 -21 -7 -26 -8 -5 -1 -17 24 -27 57 -10 32 -22
63 -28 69 -15 15 -26 0 -13 -16 7 -8 9 -17 6 -20 -4 -4 0 -17 8 -29 19 -30 29
-68 17 -68 -5 0 -9 5 -9 10 0 6 -9 10 -20 10 -21 0 -28 16 -10 22 13 4 -61 97
-77 98 -7 0 -13 -8 -13 -19 0 -32 22 -81 36 -81 19 0 18 -26 -1 -34 -8 -3 -15
-12 -15 -19 0 -8 -6 -20 -14 -26 -10 -9 -12 -20 -6 -42 8 -28 8 -29 -28 -30
-41 -1 -36 -4 21 -14 40 -6 51 -25 15 -25 -13 0 -92 -29 -176 -65 -85 -36
-159 -65 -166 -65 -7 0 -30 8 -52 19 -21 10 -86 40 -144 66 -58 26 -129 58
-159 71 -29 14 -56 22 -59 19 -3 -3 1 -5 8 -5 7 0 11 -2 8 -5 -9 -9 -68 17
-62 27 4 5 -3 5 -15 -2 -12 -6 -27 -10 -33 -8 -12 4 74 59 141 92 19 9 73 23
120 32 100 19 314 79 351 99 33 19 116 45 138 44 11 0 9 -3 -8 -10 l-25 -10
25 -19 25 -20 -70 -1 -70 -1 55 -9 c30 -5 68 -11 83 -14 18 -3 26 -1 21 6 -6
11 15 35 51 58 18 11 17 12 -12 7 -24 -4 -33 -2 -33 9 0 15 32 13 120 -6z
m345 -24 c6 -2 -18 -3 -52 -2 -33 1 -59 5 -56 10 2 4 -2 7 -10 7 -8 0 -20 6
-26 14 -9 11 5 10 61 -5 40 -11 78 -21 83 -24z m-248 19 c-3 -3 -12 -4 -19 -1
-8 3 -5 6 6 6 11 1 17 -2 13 -5z m1153 -8 c0 -2 -8 -10 -17 -17 -16 -13 -17
-12 -4 4 13 16 21 21 21 13z m-51 -53 c-6 -10 -23 -27 -37 -37 -21 -15 -20
-12 7 17 38 41 47 46 30 20z m-644 -23 c-3 -5 -12 -10 -18 -10 -7 0 -6 4 3 10
19 12 23 12 15 0z m570 -50 c-3 -5 -12 -10 -18 -10 -7 0 -6 4 3 10 19 12 23
12 15 0z m-369 -19 c-4 -6 -14 -7 -23 -4 -15 6 -14 7 3 13 22 9 29 6 20 -9z
m-36 -25 c0 -2 -8 -10 -17 -17 -16 -13 -17 -12 -4 4 13 16 21 21 21 13z m-555
-65 c3 -5 1 -12 -5 -16 -5 -3 -10 1 -10 9 0 18 6 21 15 7z m65 5 c0 -2 -8 -10
-17 -17 -16 -13 -17 -12 -4 4 13 16 21 21 21 13z m715 -36 c-3 -5 -20 -19 -38
-30 -32 -22 -32 -22 3 9 37 32 45 37 35 21z m-825 -21 c0 -6 -12 -33 -27 -61
-19 -35 -31 -47 -42 -43 -19 8 -20 8 -43 6 -22 -1 -24 -31 -2 -31 8 0 12 -4 9
-10 -15 -24 -35 -9 -35 25 0 21 -5 35 -12 36 -10 0 -10 2 0 6 6 2 12 13 12 23
0 18 26 30 66 30 12 0 24 7 28 15 6 17 46 21 46 4z m40 -34 c-18 -19 -35 -33
-38 -31 -8 8 19 46 33 46 8 0 15 5 15 10 0 6 5 10 12 10 7 0 -3 -16 -22 -35z
m-250 -92 c0 -12 6 -23 13 -26 7 -3 5 -8 -8 -13 -11 -4 -26 -15 -33 -23 -9
-10 -11 -11 -6 -2 6 11 2 13 -17 7 -109 -31 -269 -51 -269 -35 0 4 13 22 28
38 21 23 31 28 39 20 6 -6 9 -18 6 -25 -3 -8 0 -14 6 -14 6 0 11 7 11 16 0 11
6 15 20 11 11 -3 23 -1 26 5 6 9 27 6 77 -8 12 -4 17 0 17 16 0 11 -6 20 -12
19 -7 -1 -24 -1 -38 0 l-25 1 24 19 c14 10 31 17 38 14 7 -3 13 0 13 6 0 6 -4
11 -10 11 -5 0 -10 5 -10 10 0 6 6 10 14 10 9 0 13 -9 12 -24 -2 -14 4 -36 13
-50 15 -22 18 -23 41 -10 18 10 21 13 8 14 -32 0 -50 64 -26 88 10 10 16 5 30
-20 9 -18 17 -43 18 -55z m49 -10 c1 -7 -3 -13 -8 -13 -11 0 -19 31 -13 50 4
11 7 10 13 -5 4 -11 8 -26 8 -32z m91 -18 c0 -8 -4 -15 -10 -15 -5 0 -7 7 -4
15 4 8 8 15 10 15 2 0 4 -7 4 -15z m-474 -34 c-9 -10 -16 -24 -14 -31 2 -7 -3
-15 -9 -17 -7 -3 -13 0 -13 7 0 15 33 59 44 60 5 0 1 -8 -8 -19z m-66 -41 c0
-5 -8 -10 -17 -10 -15 0 -16 2 -3 10 19 12 20 12 20 0z m-41 -35 c-10 -10 -22
-13 -34 -9 -18 7 -18 8 1 15 10 4 26 8 34 8 12 1 12 -1 -1 -14z"/>
<path d="M6025 3720 c-3 -5 -2 -10 4 -10 5 0 13 5 16 10 3 6 2 10 -4 10 -5 0
-13 -4 -16 -10z"/>
<path d="M6220 3800 c-9 -6 -10 -10 -3 -10 6 0 15 5 18 10 8 12 4 12 -15 0z"/>
<path d="M6460 3810 c-45 -14 -95 -39 -81 -40 8 0 -10 -22 -39 -50 -29 -27
-51 -52 -48 -55 3 -3 25 14 50 37 58 56 71 65 121 94 43 24 42 29 -3 14z"/>
<path d="M6300 3740 c-9 -6 -10 -10 -3 -10 6 0 15 5 18 10 8 12 4 12 -15 0z"/>
<path d="M6039 3580 l-24 -19 29 8 c16 4 31 12 34 19 6 18 -13 14 -39 -8z"/>
<path d="M6042 3503 c-7 -12 -20 -24 -31 -28 -10 -3 -21 -18 -24 -33 -7 -39
-1 -39 23 -1 15 23 19 27 15 12 -4 -14 -2 -23 4 -23 6 0 10 3 9 8 -1 4 4 20
11 36 14 36 9 59 -7 29z"/>
<path d="M5940 3486 c-7 -14 -10 -35 -7 -47 3 -13 1 -29 -5 -36 -7 -9 -7 -13
0 -13 5 0 15 14 21 30 5 17 14 30 19 30 17 0 22 31 8 46 -19 19 -20 18 -36
-10z"/>
<path d="M5498 3661 c10 -33 19 -48 25 -42 12 12 -12 82 -30 88 -8 3 -6 -12 5
-46z"/>
<path d="M5113 3673 c9 -2 25 -2 35 0 9 3 1 5 -18 5 -19 0 -27 -2 -17 -5z"/>
<path d="M5255 3650 c-4 -6 6 -10 22 -10 22 0 25 2 13 10 -19 12 -27 12 -35 0z"/>
<path d="M4707 3589 c-19 -3 -43 -13 -52 -23 -17 -17 -9 -17 183 -13 230 6
290 20 136 32 -124 10 -221 12 -267 4z"/>
<path d="M5200 3570 c-63 -3 -98 -7 -78 -8 36 -2 37 -3 26 -27 -14 -31 -11
-34 39 -39 23 -2 46 -7 52 -10 6 -4 11 -4 11 1 0 4 14 14 30 21 17 8 30 19 30
25 0 6 7 19 17 29 12 14 13 18 2 16 -8 -1 -66 -5 -129 -8z"/>
<path d="M5080 3540 c0 -11 24 -40 33 -40 3 0 7 9 10 20 3 11 1 20 -3 20 -5 0
-15 3 -24 6 -9 3 -16 1 -16 -6z"/>
<path d="M4935 3476 c55 -8 147 -17 205 -20 l105 -5 -85 14 c-47 8 -139 17
-205 19 l-120 5 100 -13z"/>
<path d="M4763 3443 c9 -2 25 -2 35 0 9 3 1 5 -18 5 -19 0 -27 -2 -17 -5z"/>
<path d="M4855 3415 c24 -8 125 -11 125 -3 0 4 -30 8 -67 7 -38 0 -63 -2 -58
-4z"/>
<path d="M5038 3403 c7 -3 16 -2 19 1 4 3 -2 6 -13 5 -11 0 -14 -3 -6 -6z"/>
<path d="M11585 5610 c-18 -8 -18 -9 -2 -9 10 -1 29 -8 43 -17 31 -21 38 -15
18 14 -16 23 -27 26 -59 12z"/>
<path d="M11528 5593 c6 -2 18 -2 25 0 6 3 1 5 -13 5 -14 0 -19 -2 -12 -5z"/>
<path d="M11515 5535 c11 -72 23 -101 116 -289 l84 -169 7 104 c12 181 -8 272
-60 282 -15 3 -32 1 -38 -3 -12 -11 -54 -2 -54 11 0 4 22 11 50 15 58 8 57 24
-1 24 -34 0 -46 6 -76 37 l-35 38 7 -50z"/>
<path d="M4110 5073 c-25 -2 -151 -15 -280 -28 -196 -21 -237 -28 -247 -42
-11 -16 -24 -17 -120 -12 -86 5 -113 4 -131 -8 -57 -36 -462 -371 -637 -527
-49 -44 -92 -82 -95 -84 -3 -2 11 -17 30 -34 49 -41 293 -226 366 -277 l61
-42 199 40 c222 45 554 114 627 131 97 21 156 63 367 255 113 103 257 230 320
282 63 53 119 100 124 104 9 8 -103 85 -270 187 l-101 62 -84 -2 c-46 -1 -104
-3 -129 -5z m87 -161 c28 -15 84 -53 123 -86 58 -48 69 -61 58 -71 -7 -6 -67
-57 -133 -113 -66 -55 -178 -150 -248 -211 -149 -128 -118 -116 -472 -186
-322 -65 -322 -65 -382 -25 -100 68 -253 185 -252 195 0 6 41 45 92 87 51 43
103 88 117 100 79 72 174 152 240 201 87 67 84 66 325 42 182 -18 203 -24 228
-57 27 -36 16 -62 -62 -136 -140 -135 -223 -169 -391 -158 -177 11 -175 7 -68
101 134 117 109 108 263 95 143 -13 165 -9 165 29 0 21 -36 56 -66 65 -11 3
-83 13 -160 21 -166 17 -127 36 -375 -180 -94 -82 -181 -158 -193 -167 -11 -9
-18 -19 -16 -22 10 -9 228 -38 357 -46 308 -19 464 36 693 244 128 117 160
166 150 236 -2 22 -26 43 -63 57 -29 11 -30 12 -7 12 14 1 48 -11 77 -27z"/>
<path d="M3785 4428 c-27 -11 -90 -33 -139 -48 -84 -25 -88 -27 -55 -33 18 -3
83 -7 143 -9 l108 -3 55 50 c53 47 55 50 32 56 -44 13 -94 8 -144 -13z"/>
<path d="M7030 4997 c0 -7 -66 -112 -146 -232 -179 -269 -215 -325 -209 -325
5 0 364 536 372 556 3 8 0 14 -6 14 -6 0 -11 -6 -11 -13z"/>
<path d="M10690 4707 l-55 -12 -8 -179 c-4 -98 -6 -180 -4 -182 2 -3 27 1 55
7 95 20 148 120 140 261 -3 62 -7 73 -31 94 -16 13 -31 24 -35 23 -4 0 -32 -6
-62 -12z m66 -88 c12 -21 6 -116 -10 -148 -12 -22 -24 -31 -41 -31 -25 0 -25
1 -25 88 0 49 3 92 7 95 11 11 61 8 69 -4z"/>
<path d="M10493 4663 c-16 -3 -23 -12 -23 -27 0 -12 -16 -81 -36 -152 -47
-170 -56 -206 -49 -212 10 -10 55 18 55 35 0 30 14 42 57 49 39 6 42 5 49 -20
6 -27 19 -32 43 -17 11 7 9 31 -13 142 -31 158 -44 210 -54 208 -4 -1 -17 -4
-29 -6z m22 -220 c-2 -7 -14 -13 -26 -13 -15 0 -19 4 -15 16 3 9 9 28 12 42
12 54 17 56 25 12 5 -25 7 -51 4 -57z"/>
<path d="M9668 4643 c7 -3 16 -2 19 1 4 3 -2 6 -13 5 -11 0 -14 -3 -6 -6z"/>
<path d="M10242 4610 c-18 -4 -35 -10 -38 -13 -7 -7 -29 -366 -23 -371 5 -5
113 19 128 28 42 26 87 173 76 243 -20 118 -44 137 -143 113z m62 -86 c13 -5
16 -22 16 -79 0 -78 -14 -107 -57 -120 -23 -6 -23 -5 -23 94 0 86 2 100 18
104 27 7 29 7 46 1z"/>
<path d="M10118 4583 c-17 -4 -19 -22 -32 -297 l-4 -88 31 6 c17 3 31 7 32 9
1 1 5 86 8 190 6 194 7 191 -35 180z"/>
<path d="M9945 4543 c-11 -2 -30 -6 -42 -8 -25 -6 -29 -28 -38 -247 l-7 -138
31 0 c30 0 31 2 32 43 2 80 4 92 18 92 7 0 22 -24 33 -53 19 -52 21 -53 51
-46 18 3 34 8 35 9 2 2 -5 29 -17 60 -20 52 -20 57 -5 81 25 37 36 110 24 155
-15 53 -46 67 -115 52z m55 -116 c0 -39 -15 -57 -47 -57 -20 0 -23 5 -23 38 0
46 5 52 42 52 25 0 28 -3 28 -33z"/>
<path d="M9803 4512 c-22 -3 -23 -7 -24 -120 0 -64 -5 -133 -12 -152 -13 -37
-43 -52 -58 -28 -5 7 -9 73 -9 147 l0 133 -22 -6 c-13 -3 -26 -6 -30 -6 -5 0
-8 -74 -8 -164 0 -150 2 -165 21 -190 41 -53 122 -18 153 67 15 42 30 315 17
320 -3 2 -16 1 -28 -1z"/>
<path d="M11229 4462 c-92 -59 -183 -180 -278 -369 -50 -100 -52 -102 -109
-128 -125 -58 -214 -86 -542 -169 -355 -91 -857 -240 -1390 -414 -102 -33
-284 -90 -405 -126 -121 -36 -291 -90 -378 -120 -87 -31 -160 -56 -162 -56 -2
0 -9 17 -15 38 -7 20 -33 78 -58 127 -55 109 -173 234 -263 278 -181 90 -394
34 -595 -156 -199 -189 -382 -494 -498 -832 -21 -60 -42 -122 -48 -137 -9 -24
-18 -28 -96 -42 -255 -46 -498 -76 -616 -74 -286 5 -627 -2 -841 -18 -126 -9
-359 -19 -518 -21 -158 -3 -287 -6 -287 -8 0 -6 65 -72 158 -160 77 -74 83
-78 99 -62 14 14 15 19 4 29 -10 11 -11 9 -5 -6 6 -16 4 -18 -10 -13 -10 4
-21 7 -24 7 -4 0 0 5 8 11 12 9 10 10 -8 6 -19 -4 -21 -3 -12 8 9 11 5 14 -17
18 -15 2 56 5 160 5 103 0 187 -3 187 -8 0 -8 42 -82 67 -119 l17 -24 -139 5
c-127 4 -198 18 -181 35 3 3 12 0 21 -7 16 -14 20 -3 6 19 -5 7 -14 10 -20 6
-8 -5 -10 1 -5 19 4 16 2 26 -5 26 -6 0 -11 -7 -11 -15 0 -8 -9 -15 -20 -15
-11 0 -20 -4 -20 -10 0 -5 3 -10 8 -10 4 0 30 -21 57 -47 171 -159 233 -193
370 -202 221 -14 794 20 1120 68 39 5 62 5 66 -2 13 -19 2 -42 -22 -49 -39
-12 174 2 261 17 44 8 85 17 90 20 17 10 11 -13 -19 -85 -38 -89 -54 -104
-116 -108 -28 -1 -90 -7 -140 -12 -209 -23 -496 -43 -569 -41 -43 2 -82 -2
-85 -7 -3 -5 -19 -12 -36 -16 -23 -5 -27 -4 -15 4 12 9 8 10 -15 5 -137 -27
-208 -34 -450 -38 -325 -7 -463 2 -710 48 -44 8 -118 21 -165 30 -91 16 -380
59 -1055 156 -414 59 -669 106 -835 153 -47 13 -134 36 -195 51 -60 14 -153
37 -205 51 -183 50 -203 54 -207 51 -2 -3 18 -10 44 -17 26 -6 59 -16 73 -21
21 -7 147 -39 295 -74 l30 -7 -32 -12 c-44 -15 -65 -36 -36 -36 11 0 24 -7 27
-16 9 -22 8 -23 -16 -17 -21 4 -22 3 -5 -10 23 -19 13 -43 -24 -59 -16 -7 -29
-16 -29 -20 0 -3 -8 -8 -17 -10 -13 -3 -10 -6 10 -10 19 -4 27 -1 27 8 0 9 11
14 29 14 26 0 28 -3 25 -32 -2 -17 1 -35 7 -39 16 -10 -25 -31 -45 -23 -9 3
-16 16 -17 28 0 20 -1 20 -8 2 -4 -11 -16 -23 -27 -27 -17 -7 -17 -8 -1 -8 19
-1 24 -20 5 -22 -7 -1 16 -7 51 -15 67 -15 85 -24 64 -31 -23 -8 -14 -33 12
-33 14 0 29 -8 35 -19 5 -11 23 -22 38 -26 16 -3 34 -16 41 -28 11 -21 68 -46
108 -48 16 0 15 -1 -2 -8 -15 -6 -8 -10 30 -15 28 -4 60 -7 73 -7 13 1 22 -5
22 -14 0 -9 13 -18 30 -22 17 -3 33 -10 36 -14 3 -5 18 -9 34 -9 16 0 35 -6
42 -14 8 -7 42 -17 76 -21 34 -4 59 -11 56 -16 -8 -13 39 -26 104 -28 12 -1
22 -7 22 -16 0 -8 5 -15 10 -15 6 0 10 4 10 9 0 19 148 -11 162 -32 4 -7 11
-7 20 1 11 9 27 7 69 -8 30 -11 80 -21 111 -23 32 -1 58 -5 58 -9 0 -5 11 -8
25 -8 15 0 39 -7 54 -15 16 -8 32 -11 36 -7 12 13 70 8 81 -7 13 -17 64 -25
271 -45 84 -8 158 -18 165 -22 7 -5 25 -7 40 -5 16 1 28 -2 28 -7 0 -16 125
-24 155 -10 24 11 29 10 42 -7 13 -19 15 -19 27 -3 8 11 17 14 27 7 8 -5 39
-9 69 -10 53 -2 54 -2 15 -8 -33 -6 -23 -8 55 -13 52 -4 125 -10 162 -13 42
-4 69 -2 73 5 4 7 12 7 26 0 10 -6 29 -10 42 -9 27 3 87 -11 87 -20 0 -3 20
-6 44 -7 24 0 58 -6 74 -13 22 -9 36 -10 50 -2 13 7 22 7 30 -1 8 -8 15 -6 26
5 14 13 20 14 43 2 16 -7 51 -16 78 -19 30 -3 40 -2 25 2 -34 11 -6 21 39 14
23 -3 29 -7 20 -13 -9 -5 7 -9 43 -9 31 0 65 -3 75 -6 16 -5 16 -4 -1 10 -23
18 -15 20 34 6 39 -11 129 -21 177 -20 17 0 34 -4 37 -9 3 -5 25 -7 48 -4 29
4 39 3 34 -5 -5 -8 1 -12 16 -12 13 0 41 -2 63 -5 33 -4 27 0 -30 20 -68 23
-65 34 5 16 66 -17 101 -21 95 -11 -3 6 -21 10 -38 10 -22 0 -28 3 -19 9 8 5
31 4 53 -2 32 -8 37 -12 28 -23 -14 -17 -9 -17 27 -4 18 7 30 7 40 -1 7 -6 18
-8 23 -5 5 4 13 1 17 -5 4 -8 9 -7 15 2 8 12 11 11 19 -1 6 -10 10 -11 10 -2
0 6 7 12 15 12 14 0 19 -12 16 -32 0 -5 4 -8 9 -8 6 0 10 5 10 11 0 6 9 8 20
4 11 -4 20 -2 20 4 0 6 -5 11 -11 11 -5 0 -7 4 -4 10 9 14 48 13 63 -2 9 -9
20 -9 45 -1 20 7 58 9 105 4 40 -4 75 -4 77 -1 2 3 93 5 202 4 117 -2 203 2
210 7 7 7 13 7 17 0 4 -6 16 -5 33 4 18 9 47 12 92 8 36 -2 100 0 141 6 41 6
85 11 98 11 12 0 22 5 22 10 0 6 14 10 30 10 17 0 30 5 30 10 0 6 11 8 25 4
14 -3 25 -2 25 4 0 6 10 8 23 5 16 -3 18 -2 8 5 -11 8 -11 11 0 18 7 4 14 3
17 -4 2 -7 31 3 78 28 41 21 74 36 74 34 0 -3 12 4 26 15 15 12 34 21 43 22
12 0 13 2 2 6 -9 4 -3 10 18 19 29 12 44 44 21 44 -5 0 -10 -5 -10 -12 0 -6
-3 -8 -7 -5 -8 9 57 77 74 77 7 0 10 6 8 13 -2 6 7 26 20 42 18 22 25 25 25
13 0 -9 -5 -18 -12 -20 -6 -2 -12 -14 -13 -25 -1 -18 1 -19 16 -10 10 6 19 23
21 37 3 21 7 25 34 22 16 -1 41 2 55 7 l24 10 -23 0 c-14 1 -21 5 -16 12 3 6
15 9 25 6 11 -3 17 -1 13 4 -3 5 12 10 33 10 23 1 29 3 16 6 -13 2 -23 8 -23
12 0 5 11 6 25 3 15 -2 25 0 25 7 0 6 -7 11 -15 11 -8 0 -15 5 -15 10 0 6 9
10 21 10 11 0 17 4 14 10 -3 5 12 12 35 16 38 6 57 24 24 24 -8 0 -12 5 -9 10
4 7 14 6 28 -2 12 -7 37 -13 55 -13 27 -2 31 1 26 17 -3 10 1 25 10 34 15 14
16 14 16 0 0 -9 5 -16 11 -16 6 0 9 6 6 14 -6 16 36 38 57 30 8 -3 23 3 34 14
11 11 28 22 39 25 13 3 12 5 -7 6 -20 1 -22 3 -10 11 8 5 27 10 42 10 18 0 29
7 33 20 6 19 25 28 25 12 0 -4 10 -8 23 -9 19 -2 20 -1 5 8 -10 6 -18 15 -18
21 0 6 11 3 26 -7 24 -16 27 -16 46 2 15 13 22 15 25 6 3 -7 9 -13 14 -13 4 0
6 7 3 15 -5 12 2 15 34 15 30 0 42 4 45 18 4 15 5 15 6 0 1 -11 7 -14 20 -11
12 3 17 12 15 29 -1 13 2 22 7 18 5 -3 10 -15 10 -27 1 -17 2 -18 6 -4 2 9 11
17 18 17 7 0 16 8 18 18 4 16 5 16 6 -1 0 -10 6 -15 11 -12 6 4 8 11 5 16 -3
5 1 6 9 3 9 -3 13 -10 10 -15 -6 -10 57 0 70 12 5 4 -2 5 -15 3 -20 -5 -21 -4
-9 6 12 9 10 10 -12 6 -16 -4 -28 -2 -28 4 0 5 16 10 35 10 25 0 35 4 35 15 0
13 4 14 22 4 18 -10 20 -9 15 5 -4 10 -1 16 7 16 8 0 16 -7 20 -15 3 -8 11
-15 17 -15 8 0 8 4 -1 15 -7 9 -9 19 -5 23 4 4 14 -3 22 -16 9 -12 19 -22 24
-22 5 0 3 10 -6 23 -14 22 -14 24 8 36 13 7 33 12 43 10 10 -1 32 3 47 9 16 7
35 12 43 12 8 0 14 5 14 11 0 7 10 9 25 7 28 -6 29 -4 16 20 -8 15 -4 17 27
17 21 0 44 -5 52 -10 13 -8 13 -7 1 8 -12 15 -12 19 5 32 10 8 27 12 36 9 13
-4 16 -1 12 9 -3 8 0 18 6 22 15 9 62 -3 55 -14 -8 -15 18 -18 50 -7 17 6 30
18 30 26 0 8 7 15 15 15 8 0 20 4 27 8 6 4 14 1 17 -5 5 -10 7 -10 12 0 3 6
19 12 35 12 19 0 27 4 23 13 -6 16 67 43 91 33 12 -4 19 0 22 15 5 16 12 20
31 16 17 -3 39 4 64 20 22 15 46 23 57 20 14 -3 18 -1 14 9 -4 10 4 14 26 14
17 0 31 5 31 11 0 6 -7 9 -15 5 -8 -3 -15 -1 -15 4 0 6 14 10 30 10 17 0 40 9
52 20 24 22 84 29 72 8 -4 -7 2 -4 15 6 12 11 37 20 56 20 19 1 37 7 40 13 2
7 21 13 42 13 75 1 98 5 95 20 -3 11 0 11 12 1 8 -7 17 -8 20 -3 3 5 17 12 31
14 13 3 22 1 19 -3 -6 -11 14 -10 41 1 18 7 19 8 3 15 -27 11 -21 28 7 23 14
-3 25 -2 25 1 0 5 37 20 95 37 11 4 66 12 121 18 56 7 108 17 115 23 8 6 25
11 39 10 42 -1 134 13 139 21 4 5 15 8 26 9 44 1 231 26 250 33 11 5 42 11 70
14 170 21 323 229 404 551 34 136 72 449 65 550 -1 22 9 81 22 130 34 126 51
341 35 457 -33 247 -163 368 -302 280z m4 -504 c37 -27 73 -101 97 -200 40
-166 19 -552 -37 -677 -9 -20 -18 -47 -20 -60 -6 -32 -33 -72 -45 -65 -6 4 -7
20 -4 36 3 18 2 27 -4 23 -6 -3 -10 2 -10 12 0 48 -79 169 -94 145 -6 -10 12
-213 19 -221 3 -2 13 6 23 19 l18 23 13 -31 c7 -18 17 -29 22 -26 16 10 9 -28
-11 -61 -27 -44 -78 -70 -122 -61 -50 9 -92 56 -122 137 -42 114 -50 183 -43
414 6 182 10 223 32 305 44 162 113 282 180 310 27 12 74 2 108 -22z m-482
-179 c-12 -19 -21 -30 -21 -26 0 14 31 69 36 64 3 -3 -4 -20 -15 -38z m3 -176
c-25 -61 6 -46 -330 -156 -115 -38 -337 -111 -494 -162 -420 -138 -648 -206
-695 -207 -16 -1 -39 -7 -50 -14 -29 -19 -258 -100 -485 -173 -224 -72 -657
-215 -682 -226 -16 -6 -18 -1 -18 48 0 31 -4 59 -10 62 -5 3 -9 30 -9 58 l1
52 8 -53 c4 -29 11 -56 14 -59 3 -3 38 7 78 22 40 15 80 28 88 30 8 3 35 12
60 21 37 13 402 130 720 229 41 13 140 44 220 70 355 114 551 168 578 158 11
-5 13 -3 7 7 -5 9 -4 11 4 6 17 -11 2 -28 -20 -21 -11 4 -19 2 -19 -4 0 -6
-12 -11 -27 -11 -14 0 -23 -3 -19 -7 3 -4 -4 -13 -16 -20 -22 -13 -21 -13 12
-7 19 4 37 10 40 13 3 4 27 13 53 21 32 9 56 23 70 42 22 30 43 38 34 13 -6
-14 13 -9 108 30 11 5 22 9 25 10 28 7 66 23 125 50 88 41 137 59 382 139 280
91 267 89 247 39z m-944 -277 c0 -2 -7 -7 -16 -10 -8 -3 -12 -2 -9 4 6 10 25
14 25 6z m847 -98 c-10 -143 -10 -142 -80 -166 -115 -39 -711 -230 -802 -257
-49 -14 -128 -41 -175 -59 -47 -18 -119 -46 -160 -62 -94 -37 -98 -38 -80 -25
9 6 10 11 3 11 -6 0 -18 -6 -25 -13 -7 -8 -20 -14 -28 -15 -28 -1 -90 -28 -83
-36 4 -4 -1 -4 -11 0 -15 6 -17 4 -11 -6 5 -9 4 -11 -4 -6 -6 4 -23 0 -37 -9
-13 -9 -29 -13 -33 -10 -5 3 -11 2 -13 -3 -3 -7 -138 -62 -313 -127 -170 -64
-328 -126 -376 -148 -30 -13 -65 -28 -79 -32 -14 -4 -78 -30 -144 -56 -65 -27
-120 -49 -122 -49 -2 0 -2 6 0 13 1 6 1 9 -1 5 -3 -5 -11 -8 -19 -8 -8 0 -14
-4 -14 -10 0 -5 -7 -10 -16 -10 -9 0 -27 -9 -41 -20 -14 -11 -30 -17 -36 -13
-5 3 -8 2 -4 -3 3 -5 -13 -19 -35 -31 -21 -12 -38 -19 -36 -15 33 63 57 127
63 170 5 36 11 52 22 52 8 0 99 36 201 79 103 44 239 100 302 125 63 25 153
61 200 81 47 20 182 74 300 121 118 47 240 96 270 109 71 30 498 187 705 258
142 49 239 83 605 212 52 19 99 34 104 34 5 1 6 -35 3 -81z m-2705 -190 c-7
-7 -12 -8 -12 -2 0 14 12 26 19 19 2 -3 -1 -11 -7 -17z m22 -88 l6 -55 -15 55
c-17 66 -18 77 -6 65 6 -6 12 -35 15 -65z m-607 -30 c53 -24 127 -98 157 -159
79 -156 111 -386 85 -619 -15 -146 -77 -385 -104 -410 -5 -4 -6 -2 -3 3 4 6
-12 24 -34 40 -22 17 -51 45 -63 64 -20 28 -22 38 -13 65 16 46 20 48 70 35
39 -11 48 -10 61 2 23 24 28 52 13 81 -8 15 -17 40 -21 56 -3 17 -12 32 -18
35 -7 2 -56 3 -110 2 -84 -2 -96 -1 -85 12 6 8 20 12 29 10 10 -3 20 0 21 5 2
6 19 12 37 13 18 2 37 7 41 11 5 5 -21 7 -60 4 -54 -4 -66 -2 -58 7 6 7 19 13
30 13 11 0 33 10 48 23 16 12 45 33 65 47 26 19 34 31 32 48 -3 14 1 22 10 22
8 0 11 -5 7 -11 -9 -15 14 -29 46 -29 21 1 23 2 8 11 -18 10 -17 19 8 75 12
29 16 164 4 164 -3 0 -13 -8 -22 -17 -10 -10 -29 -29 -42 -42 -14 -14 -22 -29
-19 -35 3 -6 3 -8 -2 -4 -4 4 -23 -11 -41 -34 -58 -69 -97 -93 -107 -65 -3 8
-16 1 -37 -20 -39 -39 -66 -44 -56 -10 4 12 10 41 13 64 4 32 11 43 27 47 12
3 37 21 56 41 34 35 35 38 34 115 -1 69 1 80 17 85 10 3 28 23 41 43 12 20 33
47 45 58 l23 21 -52 40 c-71 53 -75 55 -75 37 0 -23 -66 -154 -78 -154 -5 0
-19 -19 -29 -41 -11 -22 -27 -49 -36 -59 -14 -16 -16 -7 -18 119 -4 178 -3
176 -51 151 -21 -10 -41 -17 -45 -15 -3 3 -4 2 -1 -2 6 -8 -14 -33 -27 -33 -5
0 -6 6 -2 13 4 7 3 9 -2 4 -5 -5 -8 -12 -7 -15 1 -4 -3 -12 -8 -18 -10 -13
-15 -106 -6 -121 3 -5 7 -56 8 -114 1 -98 12 -172 37 -263 6 -22 10 -41 8 -43
-5 -5 -46 98 -46 116 0 25 -40 85 -93 140 -31 33 -46 55 -41 63 6 10 4 10 -8
0 -9 -7 -20 -28 -23 -45 -4 -18 -18 -64 -31 -104 -13 -39 -24 -82 -24 -96 0
-26 91 -171 113 -180 7 -3 26 -2 42 1 27 5 28 4 14 -10 -8 -8 -26 -19 -39 -23
-35 -11 -106 -53 -122 -72 -9 -12 -2 -10 29 6 23 11 53 21 66 21 12 0 28 5 35
12 6 6 15 8 19 4 4 -4 1 -11 -7 -16 -13 -8 -12 -10 3 -10 9 0 17 -5 17 -11 0
-5 -5 -7 -10 -4 -6 4 -33 -7 -60 -24 -56 -34 -69 -38 -50 -16 11 13 10 14 -6
9 -10 -4 -24 -11 -31 -16 -6 -5 -19 -8 -29 -6 -25 4 -34 -46 -23 -135 4 -40 8
-83 8 -97 -1 -24 -1 -23 -11 5 -6 17 -11 109 -11 205 0 135 5 202 22 294 54
300 185 548 330 626 66 35 155 39 218 10z m-36 -197 c-12 -20 -14 -14 -5 12 4
9 9 14 11 11 3 -2 0 -13 -6 -23z m-176 -223 c-3 -5 -1 -10 4 -10 6 0 11 -5 11
-11 0 -5 -4 -8 -9 -4 -5 3 -12 1 -16 -5 -3 -6 1 -13 9 -16 18 -7 22 -30 6 -36
-6 -2 -12 -13 -15 -26 -11 -60 -35 -45 -35 24 0 27 7 51 21 68 20 25 37 36 24
16z m69 -127 c10 -25 3 -23 -17 3 -13 18 -14 22 -3 18 8 -3 17 -13 20 -21z
m-1 -75 c-3 -18 -10 -34 -15 -36 -4 -2 -8 -8 -8 -14 0 -6 6 -6 15 2 12 10 16
9 21 -4 3 -9 14 -15 23 -14 11 2 15 -4 14 -20 -2 -13 2 -32 7 -42 8 -14 6 -29
-4 -54 -8 -19 -12 -37 -8 -40 10 -11 22 -6 22 9 0 17 16 20 25 5 3 -5 21 -10
38 -11 27 0 29 -2 12 -9 -11 -5 -35 -9 -53 -9 -21 -1 -31 -5 -26 -12 4 -8 0
-8 -15 0 -16 9 -27 9 -46 -1 l-25 -13 26 -30 25 -30 -4 27 c-2 15 -1 25 4 23
4 -3 10 1 13 7 3 7 4 4 1 -7 -10 -47 -14 -77 -8 -71 4 3 19 -6 35 -21 l28 -26
16 39 c9 21 19 34 21 27 2 -6 -3 -27 -11 -47 -14 -34 -14 -38 4 -54 11 -9 20
-20 20 -24 0 -10 -72 31 -104 59 -26 23 -26 23 -26 2 0 -13 -5 -19 -13 -16 -7
2 -24 -4 -37 -15 -24 -19 -25 -25 -26 -142 -1 -117 -8 -153 -42 -214 -7 -12
-10 -28 -6 -34 4 -6 3 -8 -3 -5 -5 3 -20 -13 -33 -36 -13 -23 -30 -48 -37 -55
-15 -15 -48 -8 -38 8 3 5 -6 15 -20 20 -24 9 -64 46 -65 60 0 3 8 10 18 16 16
11 18 9 14 -15 -2 -17 2 -32 12 -40 19 -16 20 -12 5 26 -5 15 -7 25 -4 21 9
-8 35 14 28 25 -2 4 1 7 7 7 8 0 9 -7 5 -17 -17 -42 -14 -55 5 -18 11 22 17
46 15 53 -3 7 -1 10 4 7 5 -3 12 -1 16 5 3 5 0 10 -7 10 -7 0 -3 7 10 15 33
24 72 97 72 137 0 93 11 127 59 176 42 42 46 50 40 79 -3 18 -11 39 -16 45 -6
7 -13 21 -16 31 -5 14 -3 17 11 13 12 -4 27 3 42 19 13 14 20 25 16 25 -5 0
-4 6 2 13 9 11 4 13 -28 13 -22 0 -34 -3 -28 -7 19 -12 5 -18 -19 -8 -15 5
-23 17 -23 31 0 19 -2 20 -10 8 -17 -26 -12 -98 8 -110 15 -10 14 -11 -5 -7
-16 4 -24 -1 -29 -17 -10 -30 -13 -77 -5 -72 4 3 7 -4 7 -15 0 -10 -4 -19 -9
-19 -18 0 -48 -39 -51 -65 -2 -16 -10 -33 -18 -39 -9 -6 -19 -27 -22 -46 -17
-84 -91 -260 -110 -260 -2 0 -6 11 -8 25 -3 13 -2 22 2 20 7 -4 16 13 39 68
14 35 14 40 -1 31 -7 -4 -8 -3 -4 5 4 6 11 9 16 6 4 -3 13 9 19 25 6 18 6 28
1 25 -6 -4 -10 -2 -10 4 0 6 9 15 20 21 11 6 20 15 20 21 0 5 -11 3 -24 -6
-20 -13 -27 -13 -49 -2 l-25 13 29 11 c16 6 29 7 29 2 0 -5 -7 -9 -16 -9 -8 0
-12 -5 -9 -10 12 -19 62 22 80 66 10 24 25 51 34 61 9 10 20 27 25 38 9 25 -1
14 -43 -44 -17 -24 -28 -48 -24 -54 4 -6 1 -7 -6 -3 -7 5 -20 1 -29 -7 -29
-26 -123 -69 -138 -63 -8 3 -14 -1 -14 -10 0 -8 4 -13 9 -10 9 6 22 -17 20
-37 0 -7 -4 -3 -9 8 l-9 20 0 -20 c-1 -24 9 -39 27 -43 10 -2 12 8 7 42 l-7
44 34 -2 c26 -1 34 -6 36 -24 3 -17 -2 -22 -17 -22 -14 0 -21 -6 -21 -20 0
-18 -10 -25 -32 -21 -9 1 -10 -25 -2 -56 4 -13 10 -21 14 -18 5 3 11 1 14 -4
4 -5 -2 -8 -11 -7 -26 4 -66 138 -58 189 6 34 13 41 66 67 35 18 64 41 73 58
8 15 24 38 35 51 12 13 21 29 21 36 0 7 25 35 56 63 53 48 56 54 50 86 -4 19
-3 37 2 40 5 3 10 17 10 31 0 14 8 35 18 47 14 15 16 22 7 25 -21 8 -15 22 7
16 14 -4 24 3 37 26 10 17 19 31 20 31 1 0 0 -15 -4 -32z m-165 -71 c38 -12
42 -15 28 -26 -9 -8 -16 -19 -16 -26 0 -16 -28 -40 -37 -31 -4 3 2 12 12 19
16 12 13 14 -22 13 -39 -1 -43 5 -34 57 2 10 20 9 69 -6z m-655 -173 l-15 -70
-152 -18 c-83 -10 -185 -20 -226 -23 l-75 -5 -23 57 c-12 31 -20 60 -18 64 3
4 49 11 103 15 54 4 170 17 258 30 88 12 161 22 162 22 1 -1 -5 -33 -14 -72z
m828 43 c-10 -9 -11 -8 -5 6 3 10 9 15 12 12 3 -3 0 -11 -7 -18z m1898 -111
c14 -17 -8 -29 -30 -15 -11 7 -10 9 6 10 l20 0 -20 9 c-15 7 -16 9 -4 9 9 1
22 -5 28 -13z m-1812 -38 c-3 -8 -6 -5 -6 6 -1 11 2 17 5 13 3 -3 4 -12 1 -19z
m-167 -58 c0 -5 -2 -10 -4 -10 -3 0 -8 5 -11 10 -3 6 -1 10 4 10 6 0 11 -4 11
-10z m64 -76 c9 -24 7 -162 -3 -168 -5 -3 -13 0 -19 7 -13 15 -27 151 -18 166
10 16 33 13 40 -5z m139 -21 c53 -33 69 -54 55 -70 -16 -20 -23 -17 -73 42
-51 61 -46 69 18 28z m112 -150 c-9 -21 -21 -42 -27 -48 -12 -11 -12 -11 15
48 10 20 20 37 22 37 3 0 -2 -17 -10 -37z m-272 -35 c-9 -20 -10 -20 -10 10 0
22 4 29 10 23 7 -7 7 -18 0 -33z m34 20 c0 -7 1 -28 1 -47 l2 -34 21 27 c11
14 24 26 29 26 5 0 29 -17 53 -38 44 -38 44 -39 29 -68 -17 -33 -33 -50 -77
-80 -59 -41 -60 -40 -60 55 0 47 -3 105 -8 129 -4 24 -3 42 2 42 5 0 9 -6 8
-12z m-1020 -54 c-3 -3 -12 -4 -19 -1 -8 3 -5 6 6 6 11 1 17 -2 13 -5z m-420
-60 c-3 -3 -12 -4 -19 -1 -8 3 -5 6 6 6 11 1 17 -2 13 -5z m-314 -11 c-7 -2
-19 -2 -25 0 -7 3 -2 5 12 5 14 0 19 -2 13 -5z m442 -33 c11 -8 16 -10 12 -4
-4 7 -1 14 6 16 16 6 62 -18 49 -26 -22 -13 -1131 -30 -1151 -17 -9 6 46 10
155 12 169 2 192 3 421 8 67 2 126 0 132 -3 6 -4 20 -2 31 4 15 8 20 8 20 -2
0 -9 3 -9 10 2 8 13 13 13 31 2 15 -10 24 -11 32 -3 6 6 36 12 67 12 30 1 68
4 84 8 48 10 82 7 101 -9z m82 14 c-3 -3 -12 -4 -19 -1 -8 3 -5 6 6 6 11 1 17
-2 13 -5z m-3902 -14 c3 -5 1 -10 -4 -10 -6 0 -11 5 -11 10 0 6 2 10 4 10 3 0
8 -4 11 -10z m5768 -7 c-7 -2 -19 -2 -25 0 -7 3 -2 5 12 5 14 0 19 -2 13 -5z
m-693 -103 c-8 -5 -26 -9 -40 -9 l-25 1 25 8 c14 4 32 8 40 9 13 1 13 0 0 -9z
m400 1 c0 -5 -9 -19 -20 -32 l-20 -24 17 32 c19 34 23 39 23 24z m-4163 -237
c-3 -3 -12 -4 -19 -1 -8 3 -5 6 6 6 11 1 17 -2 13 -5z m60 -20 c-3 -3 -12 -4
-19 -1 -8 3 -5 6 6 6 11 1 17 -2 13 -5z m260 -20 c-3 -3 -12 -4 -19 -1 -8 3
-5 6 6 6 11 1 17 -2 13 -5z m1230 -140 c-3 -3 -12 -4 -19 -1 -8 3 -5 6 6 6 11
1 17 -2 13 -5z m813 -24 c0 -5 -4 -10 -10 -10 -5 0 -10 5 -10 10 0 6 5 10 10
10 6 0 10 -4 10 -10z"/>
<path d="M11081 3921 c-30 -32 -31 -37 -24 -80 4 -25 8 -86 8 -135 0 -100 -9
-113 -50 -72 -46 47 -66 30 -80 -67 -7 -43 -6 -47 14 -47 17 0 20 -4 15 -29
-8 -37 10 -70 36 -68 23 1 27 22 7 30 -9 3 -12 16 -9 36 5 37 9 38 34 9 14
-16 17 -30 12 -48 -4 -14 -8 -36 -8 -50 -1 -14 -9 -42 -19 -64 -21 -47 -21
-60 -2 -52 8 3 15 1 15 -4 0 -17 18 -11 23 8 3 10 5 5 7 -13 1 -26 3 -27 10
-10 6 14 9 15 9 4 1 -8 -4 -20 -10 -26 -6 -6 -9 -28 -7 -49 3 -36 4 -37 20
-20 10 9 20 39 24 66 4 27 10 47 15 44 5 -3 9 0 9 6 0 8 -9 10 -24 6 -19 -5
-25 -1 -31 17 -4 12 -7 25 -6 30 2 16 -10 6 -19 -15 -8 -21 -9 -20 -9 8 -1 19
5 34 13 37 22 9 29 59 12 92 -8 16 -13 31 -11 34 8 7 34 -32 35 -52 0 -26 25
-15 26 12 1 12 6 27 13 34 8 8 11 3 11 -21 0 -45 25 -56 84 -36 26 9 58 14 71
11 24 -4 25 -2 24 47 0 34 -3 45 -8 32 -7 -19 -8 -19 -15 -1 -5 15 -9 16 -15
6 -5 -7 -11 -12 -15 -11 -7 2 -83 -9 -107 -16 -13 -4 -17 7 -22 58 -3 35 -9
71 -12 81 -5 11 -2 17 6 17 7 0 10 -3 6 -6 -8 -8 18 -34 33 -34 19 0 42 71 36
112 -6 35 -4 39 26 54 18 9 41 25 51 35 16 17 16 19 -5 39 -12 11 -25 20 -30
20 -4 0 -7 5 -5 11 1 6 -3 13 -9 15 -5 3 -24 -36 -41 -86 -17 -50 -35 -91 -39
-91 -13 0 -22 39 -24 111 -1 36 -5 76 -9 90 l-7 25 -33 -34z m5 -388 c8 -3 21
0 29 7 12 10 15 9 15 -4 0 -25 -19 -56 -34 -56 -14 0 -37 65 -35 96 1 11 4 6
6 -9 3 -16 11 -31 19 -34z m221 -59 c-3 -3 -12 -4 -19 -1 -8 3 -5 6 6 6 11 1
17 -2 13 -5z"/>
<path d="M11300 3770 c0 -5 5 -10 11 -10 5 0 7 5 4 10 -3 6 -8 10 -11 10 -2 0
-4 -4 -4 -10z"/>
<path d="M11283 3723 c-3 -10 -12 -33 -19 -50 -9 -23 -10 -35 -2 -39 7 -4 8
-2 4 4 -4 7 -2 12 3 12 6 0 11 11 11 24 0 14 5 28 10 31 6 4 8 11 5 16 -4 5
-2 9 4 9 5 0 12 -14 16 -30 4 -17 11 -28 16 -24 5 3 5 13 -1 25 -6 10 -7 19
-3 19 10 0 -19 20 -30 20 -4 0 -10 -8 -14 -17z"/>
<path d="M10970 3701 c0 -6 14 -18 32 -27 l32 -17 -16 24 c-16 25 -48 38 -48
20z"/>
<path d="M11208 3571 l-26 -40 34 22 c18 12 29 23 24 25 -5 2 -6 10 -3 18 10
26 -3 15 -29 -25z"/>
<path d="M11250 3415 c-17 -10 -20 -14 -9 -15 9 0 22 7 29 15 15 18 12 18 -20
0z"/>
<path d="M11140 3396 c0 -17 22 -46 34 -46 8 0 18 -6 24 -13 8 -9 3 -17 -18
-29 -21 -12 -30 -13 -34 -5 -2 7 -5 -4 -5 -24 -1 -21 5 -42 14 -49 8 -7 15 -9
15 -4 0 5 8 -9 18 -30 l18 -40 12 30 c6 16 14 41 18 57 5 20 12 27 30 27 13 0
33 10 44 22 l21 22 -23 17 c-12 9 -47 22 -77 28 -30 6 -63 18 -73 28 -10 9
-18 13 -18 9z"/>
<path d="M11185 3390 c3 -5 13 -10 21 -10 8 0 14 5 14 10 0 6 -9 10 -21 10
-11 0 -17 -4 -14 -10z"/>
<path d="M10946 3284 c-24 -23 -27 -31 -24 -87 2 -48 7 -63 19 -65 30 -6 68
155 41 172 -5 3 -21 -6 -36 -20z"/>
<path d="M11160 3173 c0 -5 11 -20 25 -33 14 -13 25 -19 25 -13 0 5 -11 20
-25 33 -14 13 -25 19 -25 13z"/>
<path d="M11040 3125 c-16 -19 -31 -185 -18 -200 4 -5 8 2 8 16 0 14 4 29 8
35 5 5 14 40 21 78 13 72 5 100 -19 71z"/>
<path d="M11236 2993 c-6 -14 -5 -15 5 -6 7 7 10 15 7 18 -3 3 -9 -2 -12 -12z"/>
<path d="M11120 2900 c-3 -29 -9 -44 -17 -42 -15 2 -16 -7 -3 -28 7 -12 12
-12 22 -2 9 9 9 12 -1 12 -11 0 -11 3 -2 14 7 8 11 32 9 53 l-4 38 -4 -45z"/>
<path d="M7503 2717 c-7 -26 -8 -46 -2 -51 8 -9 14 6 10 28 -1 5 5 6 13 3 12
-5 13 -1 4 26 -6 18 -12 33 -13 34 0 1 -6 -17 -12 -40z"/>
<path d="M7480 2646 c0 -8 -2 -21 -5 -28 -4 -9 2 -14 13 -14 17 0 18 4 10 28
-11 31 -18 36 -18 14z"/>
<path d="M7451 2553 c-16 -45 -60 -136 -69 -143 -22 -16 -43 -50 -37 -60 9
-14 55 29 55 53 0 10 4 16 9 13 4 -3 29 28 55 70 36 58 44 79 36 92 -8 15 -9
13 -10 -8 l-1 -25 -12 23 c-13 22 -13 22 -26 -15z"/>
<path d="M7555 2244 l-30 -26 30 20 c17 10 37 22 45 25 13 5 13 6 0 6 -8 1
-28 -11 -45 -25z"/>
<path d="M7480 2205 c-14 -8 -20 -14 -14 -15 5 0 19 7 30 15 24 18 16 19 -16
0z"/>
<path d="M7169 2213 c-13 -16 -12 -17 4 -4 16 13 21 21 13 21 -2 0 -10 -8 -17
-17z"/>
<path d="M7240 2150 c0 -5 5 -10 11 -10 5 0 7 5 4 10 -3 6 -8 10 -11 10 -2 0
-4 -4 -4 -10z"/>
<path d="M9454 4434 c-44 -46 -78 -154 -72 -228 6 -70 41 -141 77 -156 37 -15
86 5 124 49 24 29 27 40 27 112 0 43 -2 79 -4 79 -3 0 -16 -4 -30 -10 -23 -8
-26 -15 -26 -58 0 -37 -5 -54 -21 -68 -55 -50 -104 78 -65 171 21 49 56 63
101 42 l34 -16 12 41 c10 38 9 43 -13 60 -14 10 -40 18 -67 18 -37 0 -49 -5
-77 -36z"/>
<path d="M9335 4425 c-5 -2 -44 -11 -86 -20 l-77 -17 -1 -199 c-2 -157 1 -199
11 -199 7 0 48 7 91 15 43 8 81 15 83 15 2 0 4 23 4 51 0 43 -2 50 -17 45 -10
-3 -37 -10 -61 -15 l-43 -9 3 36 c3 36 4 37 56 46 l52 9 0 44 0 44 -37 -6
c-21 -4 -46 -9 -56 -12 -16 -4 -18 0 -15 29 3 32 5 33 61 42 l57 9 0 49 c0 46
-3 51 -25 43z"/>
<path d="M9027 4363 c-49 -20 -77 -73 -77 -146 0 -70 20 -96 78 -104 48 -6 59
-21 42 -52 -14 -27 -52 -36 -91 -22 -18 6 -34 9 -36 7 -2 -2 -7 -21 -10 -41
-8 -47 12 -65 71 -65 81 0 136 59 138 148 2 71 -22 109 -80 125 -55 17 -64 44
-19 65 23 11 32 11 59 -2 17 -9 33 -16 35 -16 1 0 3 22 3 49 0 46 -2 50 -31
60 -39 13 -35 14 -82 -6z"/>
<path d="M1366 4275 c-3 -8 -1 -15 4 -15 6 0 10 7 10 15 0 8 -2 15 -4 15 -2 0
-6 -7 -10 -15z"/>
<path d="M8628 4283 c-15 -4 -18 -16 -18 -67 0 -35 -3 -131 -7 -214 -7 -176
-16 -165 105 -136 76 19 92 33 92 82 l0 35 -43 -6 c-24 -3 -51 -9 -60 -13 -17
-6 -18 5 -15 160 3 182 6 175 -54 159z"/>
<path d="M8363 4223 l-63 -15 0 -215 0 -216 45 6 c143 20 220 109 220 257 0
88 -11 134 -41 170 -30 35 -59 37 -161 13z m115 -123 c13 -25 11 -116 -4 -154
-8 -20 -55 -46 -84 -46 -20 0 -21 4 -19 98 3 121 9 134 57 130 27 -2 40 -10
50 -28z"/>
<path d="M6500 4179 c-7 -11 -10 -23 -7 -25 2 -2 9 7 15 21 14 30 7 33 -8 4z"/>
<path d="M1351 4144 c0 -11 3 -14 6 -6 3 7 2 16 -1 19 -3 4 -6 -2 -5 -13z"/>
<path d="M10228 4148 c0 -2 -6 -67 -12 -146 -12 -158 -15 -151 55 -130 26 7
39 17 39 29 0 9 3 25 7 35 5 15 2 16 -31 10 l-37 -7 6 93 c4 51 8 99 10 106 4
10 -31 19 -37 10z"/>
<path d="M10100 4121 c-29 -8 -36 -41 -42 -204 -4 -94 -3 -98 17 -95 16 2 21
11 23 51 3 52 16 62 27 20 9 -39 22 -52 45 -46 11 3 20 6 20 7 0 0 -7 19 -14
41 -12 33 -12 44 -1 65 7 14 16 45 19 70 11 79 -23 112 -94 91z m53 -73 c7
-20 -11 -58 -28 -58 -11 0 -15 10 -15 35 0 28 4 35 19 35 10 0 21 -6 24 -12z"/>
<path d="M9971 4086 c-34 -19 -50 -54 -51 -107 0 -50 11 -65 50 -71 17 -2 26
-10 28 -25 4 -29 -31 -40 -63 -19 -24 16 -25 16 -25 -8 0 -38 18 -76 36 -76
27 0 73 32 84 60 6 15 10 49 8 76 -3 46 -5 50 -38 60 -38 13 -45 31 -18 48 13
8 23 8 37 -1 16 -10 20 -9 25 3 13 34 6 62 -16 68 -30 7 -29 8 -57 -8z"/>
<path d="M9741 4021 c-27 -27 -42 -84 -30 -123 10 -36 24 -48 57 -48 18 0 23
-5 20 -22 -3 -20 -8 -23 -44 -21 -38 1 -42 -1 -47 -25 -6 -33 8 -52 39 -52 39
0 70 20 88 56 30 65 14 126 -38 141 -48 14 -40 38 12 37 l43 -1 -3 36 c-3 34
-5 36 -40 39 -26 2 -43 -3 -57 -17z"/>
<path d="M9612 3995 c-30 -7 -55 -15 -57 -17 -4 -4 -11 -298 -7 -298 2 0 32 7
67 16 l65 16 0 38 0 38 -37 -9 c-53 -12 -55 -12 -51 13 2 16 13 25 38 32 39
11 50 22 50 50 0 16 -6 18 -41 13 -37 -5 -40 -3 -37 16 2 15 13 23 36 28 40 8
40 8 44 43 4 35 -3 37 -70 21z"/>
<path d="M9422 3950 c-18 -4 -36 -11 -40 -15 -4 -3 -9 -74 -11 -156 l-3 -149
23 9 c20 7 24 16 27 60 4 61 18 63 40 6 20 -52 18 -50 47 -37 l24 11 -18 41
c-18 40 -18 42 1 78 14 26 18 51 15 84 -6 75 -25 87 -105 68z m56 -91 c2 -19
-3 -28 -22 -37 -14 -6 -27 -8 -30 -3 -4 6 -2 45 3 69 1 2 11 2 24 0 15 -2 23
-11 25 -29z"/>
<path d="M9313 3922 c-7 -5 -14 -60 -19 -155 -7 -147 -7 -147 15 -147 12 0 23
6 26 13 2 6 5 76 8 155 3 141 1 154 -30 134z"/>
<path d="M9185 3891 c-16 -7 -26 -31 -44 -107 -13 -55 -32 -125 -42 -157 l-18
-59 22 6 c12 3 25 6 30 6 4 0 7 10 7 23 0 18 8 25 39 33 37 10 40 10 46 -13 4
-19 10 -23 28 -17 12 3 23 8 25 9 5 4 -62 285 -68 284 -3 0 -14 -4 -25 -8z m8
-184 c-22 -13 -26 -2 -18 40 l8 38 12 -35 c10 -29 10 -36 -2 -43z"/>
<path d="M8959 3843 c-26 -4 -26 -6 -33 -110 -3 -58 -6 -130 -6 -159 l0 -52
53 12 c67 16 76 21 92 60 16 39 12 220 -5 241 -12 14 -44 17 -101 8z m69 -82
c4 -23 -11 -41 -35 -41 -14 0 -18 52 -6 64 14 14 38 0 41 -23z m2 -116 c0 -14
-29 -35 -49 -35 -12 0 -15 33 -4 43 13 13 53 7 53 -8z"/>
<path d="M1161 3624 c0 -11 3 -14 6 -6 3 7 2 16 -1 19 -3 4 -6 -2 -5 -13z"/>
<path d="M1484 3533 c-67 -70 -81 -92 -63 -104 8 -5 25 -9 39 -9 23 0 27 -7
42 -71 35 -147 102 -250 187 -294 174 -88 686 -267 796 -279 320 -34 1058 -56
1250 -38 127 13 223 40 280 81 22 15 72 50 110 76 81 55 175 137 175 153 0 6
-7 9 -15 6 -8 -4 -15 -1 -15 5 0 18 -153 162 -189 177 -41 17 -340 42 -1021
85 -96 6 -215 14 -265 18 -98 9 -116 6 -88 -14 17 -13 17 -14 0 -20 -9 -4 -63
-1 -120 6 -84 11 -96 14 -67 20 31 6 32 7 8 8 -21 1 -28 6 -28 20 0 11 -8 22
-17 25 -17 5 -176 35 -298 57 -33 6 -181 39 -328 75 -148 35 -282 64 -298 64
-22 0 -41 -12 -75 -47z"/>
<path d="M2765 3550 c-3 -5 3 -10 15 -10 12 0 18 5 15 10 -3 6 -10 10 -15 10
-5 0 -12 -4 -15 -10z"/>
<path d="M2930 3474 c0 -5 -21 -31 -47 -57 l-47 -48 -85 5 -86 5 75 -14 c41
-7 83 -14 92 -14 18 -1 114 116 104 126 -3 4 -6 2 -6 -3z"/>
<path d="M2371 3444 c0 -11 3 -14 6 -6 3 7 2 16 -1 19 -3 4 -6 -2 -5 -13z"/>
<path d="M2455 3416 c28 -7 52 -11 54 -9 9 6 -5 11 -54 16 l-50 6 50 -13z"/>
<path d="M1400 3390 c-2 -63 74 -247 123 -298 59 -62 371 -207 594 -276 205
-64 307 -85 498 -100 489 -40 1071 -46 1220 -12 99 23 191 70 335 171 153 107
172 124 168 150 -3 21 -20 24 -27 4 -2 -7 1 -9 8 -5 21 13 11 -19 -10 -34 -12
-8 -40 -28 -63 -45 -335 -239 -338 -240 -816 -239 -310 0 -456 6 -870 35 -134
10 -175 17 -309 56 -85 24 -209 65 -275 90 -143 54 -378 164 -421 197 -35 27
-74 102 -121 230 -18 50 -33 84 -34 76z"/>
<path d="M2588 3323 c7 -3 16 -2 19 1 4 3 -2 6 -13 5 -11 0 -14 -3 -6 -6z"/>
<path d="M8181 3254 c0 -11 3 -14 6 -6 3 7 2 16 -1 19 -3 4 -6 -2 -5 -13z"/>
<path d="M8181 3214 c0 -11 3 -14 6 -6 3 7 2 16 -1 19 -3 4 -6 -2 -5 -13z"/>
<path d="M1175 2868 c26 -175 58 -283 81 -274 8 3 15 -8 19 -35 9 -53 14 -45
24 32 8 63 12 64 26 4 l7 -30 14 45 c8 25 14 58 14 73 0 33 -33 66 -67 67 -15
0 -28 11 -39 33 -21 41 -76 127 -82 127 -2 0 -1 -19 3 -42z"/>
<path d="M1717 2694 c-23 -23 10 -104 43 -104 6 0 10 -7 10 -16 0 -11 -5 -14
-17 -9 -41 17 -53 17 -53 2 0 -21 38 -47 67 -47 51 0 48 95 -3 119 -14 6 -22
16 -19 21 4 7 13 6 26 -1 26 -13 37 -4 23 19 -11 18 -64 28 -77 16z"/>
<path d="M1815 2603 c4 -49 10 -91 14 -95 8 -9 89 -27 94 -21 14 14 -9 42 -39
48 -22 4 -34 12 -34 22 0 12 7 14 31 9 27 -5 30 -3 27 16 -2 14 -12 24 -27 28
-14 3 -27 12 -29 19 -3 10 3 11 27 6 27 -6 31 -4 31 14 0 15 -10 23 -37 30
-67 19 -66 20 -58 -76z"/>
<path d="M1950 2630 c-50 -50 4 -170 76 -170 30 0 43 19 37 58 -6 35 -33 45
-33 12 0 -23 -29 -27 -48 -8 -17 17 -15 77 3 84 8 4 26 -1 40 -10 31 -21 35
-20 35 3 0 24 -36 51 -67 51 -13 0 -32 -9 -43 -20z"/>
<path d="M2072 2554 c3 -41 10 -80 17 -87 16 -16 14 -27 -6 -27 -15 0 -16 -2
-3 -10 20 -13 33 -13 25 0 -3 6 -1 10 4 10 6 0 11 -4 11 -10 0 -17 20 -11 46
13 23 21 25 30 22 93 -2 56 -6 69 -21 72 -15 3 -17 -4 -16 -58 2 -66 -2 -76
-26 -67 -11 5 -15 22 -15 71 0 61 -7 76 -37 76 -3 0 -3 -34 -1 -76z"/>
<path d="M2212 2513 c3 -73 6 -88 20 -91 12 -2 18 5 20 25 l3 28 18 -32 c13
-25 24 -33 45 -33 15 0 34 -5 42 -10 19 -13 20 -13 -79 5 -47 8 -87 13 -89 10
-5 -5 52 -18 134 -31 21 -3 58 -10 81 -15 78 -17 139 5 148 54 13 65 -27 113
-105 127 l-40 7 0 -83 c0 -57 4 -84 13 -87 6 -3 2 -4 -10 -4 -22 1 -23 5 -23
89 0 72 -3 88 -15 88 -27 0 -28 -4 -26 -72 2 -72 -7 -85 -29 -43 -10 20 -11
28 -2 37 19 19 14 63 -10 85 -13 11 -40 24 -61 27 l-38 7 3 -88z m67 24 c12
-15 5 -27 -16 -27 -7 0 -13 9 -13 20 0 23 13 26 29 7z m209 -43 c17 -12 22
-24 20 -47 -2 -27 -8 -33 -30 -35 -27 -3 -28 -2 -28 47 0 55 4 59 38 35z"/>
<path d="M5078 2553 c7 -3 16 -2 19 1 4 3 -2 6 -13 5 -11 0 -14 -3 -6 -6z"/>
<path d="M1540 2494 c-31 -28 -130 -173 -130 -190 0 -3 -11 -20 -24 -37 -13
-18 -26 -41 -28 -52 -3 -17 4 -21 47 -26 28 -3 88 -16 135 -28 47 -13 162 -42
255 -66 94 -24 220 -58 280 -75 61 -18 129 -36 153 -41 24 -5 47 -11 51 -13 4
-3 18 -7 32 -10 40 -7 123 -28 144 -36 88 -33 510 -90 925 -125 102 -9 203
-18 225 -20 142 -15 607 -71 668 -81 52 -9 47 11 -8 29 -24 9 -61 29 -82 45
-21 15 -63 47 -93 70 -30 22 -64 49 -75 59 -12 10 -57 50 -101 90 -135 120
-249 201 -307 218 -47 13 -143 30 -237 41 -19 2 -84 11 -145 19 -143 20 -148
19 -142 -4 2 -10 1 -25 -4 -32 -6 -10 -9 -5 -10 16 -1 17 -1 33 0 38 0 4 -9 7
-22 8 -12 0 -16 3 -9 6 22 9 14 42 -13 49 l-25 6 20 25 c25 33 25 58 0 83 -35
35 -98 21 -85 -18 5 -18 9 -20 25 -9 15 9 22 9 32 -1 9 -9 5 -19 -19 -44 -47
-51 -49 -66 -7 -74 24 -4 32 -9 23 -15 -7 -4 -17 -5 -21 -3 -4 3 -8 1 -8 -5 0
-5 15 -11 33 -13 l32 -3 6 -150 c6 -170 -1 -208 -34 -196 -12 5 -56 11 -97 15
-41 4 -140 17 -220 31 -80 13 -215 35 -300 49 -85 14 -191 32 -235 40 -44 8
-102 18 -129 22 -79 11 -83 19 -91 197 -4 85 -5 160 -1 165 3 6 28 5 68 -3 35
-8 64 -12 66 -10 5 4 -73 26 -108 31 -14 2 -82 17 -152 34 -162 39 -209 38
-258 -6z"/>
<path d="M2581 2451 c-12 -39 -29 -77 -37 -85 -12 -13 -12 -15 5 -13 11 0 18
4 15 8 -2 4 5 5 16 2 11 -3 20 0 20 6 0 6 14 11 30 11 19 0 30 -5 30 -14 0 -8
8 -17 18 -19 9 -3 -10 -3 -43 -1 l-60 3 75 -13 c96 -18 214 -28 180 -17 -16 6
-19 9 -8 10 23 1 38 31 38 75 0 50 -41 92 -98 101 l-43 7 3 -90 c2 -50 1 -88
-1 -86 -3 2 -21 44 -40 92 -28 66 -41 88 -57 90 -18 3 -24 -7 -43 -67z m230
-19 c14 -35 2 -64 -24 -60 -18 2 -22 11 -25 50 -3 43 -1 46 18 41 12 -3 26
-17 31 -31z m-171 3 c0 -8 -4 -15 -10 -15 -5 0 -10 7 -10 15 0 8 5 15 10 15 6
0 10 -7 10 -15z"/>
<path d="M1280 2465 c0 -25 5 -45 10 -45 6 0 10 20 10 45 0 25 -4 45 -10 45
-5 0 -10 -20 -10 -45z"/>
<path d="M3085 2417 c-23 -41 -34 -98 -17 -96 31 5 62 -3 62 -16 0 -9 9 -15
24 -15 29 0 43 41 27 83 -13 33 -57 40 -48 7 3 -13 0 -20 -9 -20 -19 0 -18 9
6 48 25 41 25 52 0 52 -12 0 -28 -16 -45 -43z"/>
<path d="M3260 2350 c0 -73 2 -80 20 -80 16 0 20 7 20 31 0 26 3 30 23 27 18
-2 22 -8 19 -36 -2 -31 0 -33 25 -31 16 2 33 1 38 -2 24 -15 67 -19 86 -9 16
9 19 19 17 48 -2 31 -9 40 -35 52 -43 20 -42 33 2 24 31 -5 35 -4 35 15 0 13
-6 21 -17 21 -10 0 -35 3 -55 6 l-38 7 0 -45 c0 -42 2 -46 32 -54 19 -6 34
-17 36 -28 3 -16 0 -18 -19 -11 -13 4 -34 7 -46 7 -20 0 -21 4 -17 64 4 63 3
64 -21 64 -20 0 -25 -5 -25 -25 0 -18 -5 -25 -20 -25 -16 0 -20 7 -20 30 0 23
-4 30 -20 30 -18 0 -20 -7 -20 -80z"/>
<path d="M2010 2405 c-9 -10 -9 -19 -2 -28 6 -6 12 -27 14 -46 2 -19 9 -36 16
-39 10 -3 12 11 10 59 -3 64 -15 81 -38 54z"/>
<path d="M2070 2385 c0 -9 9 -15 21 -15 22 0 22 1 3 -67 -5 -17 -2 -23 9 -23
17 0 53 93 42 110 -10 17 -75 12 -75 -5z"/>
<path d="M2170 2354 c-16 -40 -12 -65 10 -71 11 -3 20 -9 20 -14 0 -5 7 -9 15
-9 16 0 20 34 9 89 -8 39 -40 43 -54 5z m27 -36 c-3 -8 -6 -5 -6 6 -1 11 2 17
5 13 3 -3 4 -12 1 -19z"/>
<path d="M2250 2355 c0 -8 7 -15 16 -15 11 0 14 -5 10 -16 -4 -9 -1 -23 6 -32
11 -13 10 -15 -9 -10 -34 9 -29 -20 4 -33 24 -9 30 -7 45 11 14 18 18 19 18 6
0 -18 46 -40 67 -31 23 8 11 58 -17 72 l-25 13 23 6 c28 8 28 21 0 30 -16 5
-27 1 -40 -16 -10 -12 -18 -29 -18 -37 0 -8 -5 -11 -10 -8 -6 4 -8 16 -5 26 4
11 1 26 -5 34 -16 20 -60 19 -60 0z m140 -85 c0 -5 -4 -10 -10 -10 -5 0 -10 5
-10 10 0 6 5 10 10 10 6 0 10 -4 10 -10z"/>
<path d="M2442 2328 c-7 -7 -12 -28 -12 -48 0 -43 15 -60 53 -60 26 0 28 3 25
33 -2 24 -8 33 -26 35 -12 2 -20 7 -17 12 3 5 12 7 19 4 22 -9 28 14 7 25 -25
14 -34 14 -49 -1z m38 -79 c0 -6 -4 -7 -10 -4 -5 3 -10 11 -10 16 0 6 5 7 10
4 6 -3 10 -11 10 -16z"/>
<path d="M2586 2269 c-17 -43 -14 -59 11 -59 9 0 22 -8 29 -17 20 -28 26 -10
18 56 -5 49 -10 61 -24 61 -11 0 -24 -15 -34 -41z m30 -26 c-11 -11 -17 4 -9
23 7 18 8 18 11 1 2 -10 1 -21 -2 -24z"/>
<path d="M2660 2287 c0 -9 9 -19 21 -22 21 -7 21 -21 3 -70 -5 -13 -2 -16 12
-13 18 3 54 91 42 103 -3 3 -22 9 -42 12 -28 4 -36 2 -36 -10z"/>
<path d="M2918 2293 c6 -2 18 -2 25 0 6 3 1 5 -13 5 -14 0 -19 -2 -12 -5z"/>
<path d="M2760 2276 c0 -9 7 -19 16 -23 13 -5 13 -7 2 -15 -10 -7 -9 -11 6
-23 11 -8 17 -18 13 -21 -4 -4 -13 -1 -22 6 -9 7 -18 10 -21 7 -12 -12 6 -37
31 -43 34 -8 61 16 50 43 -5 10 -7 25 -7 33 3 23 -11 38 -41 45 -21 6 -27 4
-27 -9z"/>
<path d="M2857 2263 c-17 -16 -6 -54 18 -65 22 -10 23 -13 10 -20 -8 -5 -15
-13 -15 -18 0 -14 34 -12 48 2 13 13 16 66 6 92 -6 16 -54 22 -67 9z m43 -29
c0 -8 -4 -12 -10 -9 -5 3 -10 10 -10 16 0 5 5 9 10 9 6 0 10 -7 10 -16z"/>
<path d="M2058 2188 c5 -77 22 -85 22 -10 0 43 -4 62 -12 62 -9 0 -12 -15 -10
-52z"/>
<path d="M1994 2215 c-3 -8 -3 -19 1 -25 3 -5 2 -10 -3 -10 -6 0 -8 -9 -5 -20
3 -11 11 -20 18 -20 8 0 20 -3 29 -6 13 -5 16 1 16 29 0 50 -42 89 -56 52z"/>
<path d="M2093 2195 c-3 -9 0 -22 6 -29 9 -11 9 -15 -1 -19 -23 -9 14 -28 44
-23 17 3 28 0 32 -9 7 -18 42 -20 50 -2 3 8 8 7 16 -6 6 -9 15 -15 21 -12 5 4
8 -4 6 -17 -1 -15 3 -23 13 -23 11 0 16 14 18 56 3 54 2 57 -23 63 -31 8 -45
1 -46 -22 -1 -10 -4 -7 -8 8 -5 18 -14 25 -31 25 -21 0 -25 -4 -22 -25 2 -18
0 -22 -8 -14 -6 6 -13 19 -14 29 -4 25 -45 40 -53 20z m174 -67 c-3 -8 -6 -5
-6 6 -1 11 2 17 5 13 3 -3 4 -12 1 -19z m-67 2 c0 -5 -2 -10 -4 -10 -3 0 -8 5
-11 10 -3 6 -1 10 4 10 6 0 11 -4 11 -10z"/>
<path d="M2310 2131 c0 -43 1 -45 43 -55 26 -6 27 -5 27 39 0 33 -4 45 -15 45
-10 0 -15 -10 -15 -32 0 -37 -10 -32 -14 8 -5 45 -26 42 -26 -5z"/>
<path d="M2504 2155 c4 -10 -1 -15 -14 -15 -16 0 -20 -7 -20 -33 0 -39 15 -57
48 -57 20 0 23 4 18 23 -3 12 -6 39 -6 60 0 27 -4 37 -16 37 -10 0 -14 -6 -10
-15z m3 -67 c-3 -8 -6 -5 -6 6 -1 11 2 17 5 13 3 -3 4 -12 1 -19z"/>
<path d="M2390 2114 c0 -50 26 -63 33 -16 4 25 4 25 6 -5 0 -22 6 -33 16 -33
10 0 15 10 15 33 0 41 -9 53 -42 59 -27 5 -28 4 -28 -38z"/>
<path d="M2657 2144 c-3 -3 -3 -12 -1 -19 3 -7 -4 -15 -17 -18 -19 -5 -21 -11
-15 -38 8 -39 7 -39 41 -45 l27 -5 -6 58 c-2 32 -5 61 -5 66 -1 8 -15 9 -24 1z
m0 -86 c-3 -7 -5 -2 -5 12 0 14 2 19 5 13 2 -7 2 -19 0 -25z"/>
<path d="M2555 2118 c-2 -7 -3 -26 -2 -42 2 -23 8 -31 30 -37 26 -7 27 -6 27
30 0 38 -14 61 -37 61 -8 0 -15 -6 -18 -12z"/>
<path d="M2737 2083 c-11 -11 -8 -48 5 -61 7 -7 23 -12 36 -12 19 0 23 4 19
20 -3 11 -1 20 3 20 5 0 10 -10 12 -22 2 -17 11 -24 31 -26 33 -4 45 18 28 55
-10 22 -16 25 -46 20 -19 -3 -37 -1 -40 4 -7 10 -38 12 -48 2z m35 -45 c-9 -9
-12 -7 -12 12 0 19 3 21 12 12 9 -9 9 -15 0 -24z m78 2 c0 -11 -4 -20 -10 -20
-5 0 -10 9 -10 20 0 11 5 20 10 20 6 0 10 -9 10 -20z"/>
<path d="M1326 2070 c5 -5 25 -12 44 -15 l35 -5 -35 14 c-42 18 -58 20 -44 6z"/>
<path d="M2887 2074 c-1 -2 -1 -21 1 -43 3 -28 9 -41 19 -41 12 0 14 7 10 30
-4 17 -2 30 3 30 6 0 10 -16 10 -35 0 -24 5 -35 15 -35 16 0 19 28 9 66 -4 15
-16 23 -35 26 -16 3 -30 3 -32 2z"/>
<path d="M1418 2043 c7 -3 16 -2 19 1 4 3 -2 6 -13 5 -11 0 -14 -3 -6 -6z"/>
<path d="M2700 2036 c0 -17 14 -29 23 -20 8 8 -3 34 -14 34 -5 0 -9 -6 -9 -14z"/>
<path d="M4656 1983 c-6 -14 -5 -15 5 -6 7 7 10 15 7 18 -3 3 -9 -2 -12 -12z"/>
<path d="M4484 1959 c-3 -5 4 -9 15 -9 10 0 27 -3 37 -7 11 -4 15 -3 11 4 -9
14 -56 23 -63 12z"/>
<path d="M9020 1966 c0 -2 7 -7 16 -10 8 -3 12 -2 9 4 -6 10 -25 14 -25 6z"/>
<path d="M8900 1880 c0 -5 5 -10 10 -10 6 0 10 5 10 10 0 6 -4 10 -10 10 -5 0
-10 -4 -10 -10z"/>
<path d="M8940 1880 c0 -5 5 -10 11 -10 5 0 7 5 4 10 -3 6 -8 10 -11 10 -2 0
-4 -4 -4 -10z"/>
<path d="M8850 1846 c0 -2 7 -6 15 -10 8 -3 15 -1 15 4 0 6 -7 10 -15 10 -8 0
-15 -2 -15 -4z"/>
<path d="M8690 1806 c0 -2 7 -9 15 -16 12 -10 15 -10 15 4 0 9 -7 16 -15 16
-8 0 -15 -2 -15 -4z"/>
<path d="M8730 1801 c0 -10 50 -25 58 -17 2 3 -7 10 -22 16 -33 12 -36 12 -36
1z"/>
<path d="M5848 1733 c6 -2 18 -2 25 0 6 3 1 5 -13 5 -14 0 -19 -2 -12 -5z"/>
<path d="M5728 1723 c7 -3 16 -2 19 1 4 3 -2 6 -13 5 -11 0 -14 -3 -6 -6z"/>
<path d="M5578 1713 c12 -2 32 -2 45 0 12 2 2 4 -23 4 -25 0 -35 -2 -22 -4z"/>
<path d="M4403 1703 c9 -2 25 -2 35 0 9 3 1 5 -18 5 -19 0 -27 -2 -17 -5z"/>
<path d="M5388 1703 c18 -2 45 -2 60 0 15 2 0 4 -33 4 -33 0 -45 -2 -27 -4z"/>
<path d="M1880 1660 c0 -5 5 -10 11 -10 5 0 7 5 4 10 -3 6 -8 10 -11 10 -2 0
-4 -4 -4 -10z"/>
<path d="M1780 1630 c0 -5 5 -10 11 -10 5 0 7 5 4 10 -3 6 -8 10 -11 10 -2 0
-4 -4 -4 -10z"/>
<path d="M8298 1633 c7 -3 16 -2 19 1 4 3 -2 6 -13 5 -11 0 -14 -3 -6 -6z"/>
<path d="M7555 1271 c-3 -5 -1 -12 5 -16 5 -3 10 1 10 9 0 18 -6 21 -15 7z"/>
<path d="M7430 1168 c0 -4 7 -8 15 -8 8 0 15 4 15 8 0 5 -7 9 -15 9 -8 0 -15
-4 -15 -9z"/>
<path d="M4512 963 c-18 -3 -30 -9 -27 -14 8 -12 102 -12 110 1 3 6 0 10 -9
10 -8 0 -20 2 -28 3 -7 2 -28 2 -46 0z"/>
<path d="M4648 933 c7 -3 16 -2 19 1 4 3 -2 6 -13 5 -11 0 -14 -3 -6 -6z"/>
<path d="M5630 870 c0 -5 7 -10 16 -10 8 0 12 5 9 10 -3 6 -10 10 -16 10 -5 0
-9 -4 -9 -10z"/>
<path d="M5710 870 c-12 -8 -10 -10 8 -10 13 0 20 4 17 10 -7 12 -6 12 -25 0z"/>
<path d="M5735 850 c-30 -8 -30 -8 8 -9 23 -1 36 3 32 9 -3 6 -7 9 -8 9 -1 -1
-15 -5 -32 -9z"/>
</g>
</svg>
